<svg width="500" height="500" viewBox="0 0 500 500" fill="none" xmlns="http://www.w3.org/2000/svg">
<path d="M431.67 117.79C434.047 116.74 436.064 115.016 437.472 112.832C438.879 110.648 439.616 108.099 439.59 105.5C439.59 98.16 434.06 92.19 427.18 92.16C420.3 92.13 414.7 98.05 414.67 105.39C414.621 108.01 415.349 110.586 416.762 112.792C418.175 114.999 420.21 116.738 422.61 117.79C403.44 120.68 404.31 141.52 404.31 141.52L449.64 141.73C449.64 141.73 450.68 120.66 431.67 117.79Z" fill="#F5F5F5"/>
<path d="M163.82 39.92L134.19 29.44L104.85 39.78C101.11 41.52 97.8499 42.56 97.8499 46V63.11C97.8131 75.127 101.165 86.911 107.52 97.11C113.916 107.506 123.337 115.698 134.52 120.59C146.52 116.75 155.46 106.53 160.94 97.78C167.288 87.5782 170.635 75.7954 170.6 63.78V48.39C170.56 43.49 167.92 41.1 163.82 39.92Z" fill="#F5F5F5"/>
<path d="M144 67.54C144.007 66.0131 143.587 64.5145 142.789 63.2131C141.99 61.9117 140.844 60.8591 139.479 60.1739C138.115 59.4887 136.586 59.1981 135.065 59.3348C133.544 59.4716 132.092 60.0303 130.872 60.9479C129.651 61.8656 128.711 63.1058 128.158 64.5288C127.604 65.9518 127.459 67.5011 127.738 69.0023C128.017 70.5034 128.71 71.8968 129.739 73.0253C130.767 74.1539 132.091 74.9728 133.56 75.39V87.66H138.04V75.39C139.752 74.9088 141.261 73.8818 142.337 72.4649C143.412 71.0481 143.996 69.3189 144 67.54Z" fill="#EBEBEB"/>
<path d="M415.74 198.49L420.79 201.23L418.52 205.03L413.42 202.03L413.52 207.64H409.16V201.98L404.11 205L401.88 201.2L406.93 198.46L401.88 195.68L404.11 191.88L409.2 195V189.34H413.56L413.46 195L418.56 191.94L420.83 195.74L415.74 198.49Z" fill="#E0E0E0"/>
<path d="M436.78 198.49L441.83 201.23L439.56 205.03L434.46 202.03L434.56 207.64H430.2L430.25 201.98L425.15 205.04L422.92 201.24L427.97 198.5L422.92 195.72L425.15 191.92L430.25 194.98L430.2 189.32H434.56L434.46 194.98L439.56 191.92L441.83 195.72L436.78 198.49Z" fill="#E0E0E0"/>
<path d="M457.82 198.49L462.88 201.23L460.61 205.03L455.51 202.03L455.6 207.64H451.24L451.29 201.98L446.19 205.04L443.96 201.24L449.02 198.5L444 195.71L446.23 191.91L451.33 194.97L451.28 189.31H455.64L455.55 194.97L460.65 191.91L462.92 195.71L457.82 198.49Z" fill="#E0E0E0"/>
<path d="M243.74 437.86V468.92H289.16H339.26V437.86H243.74Z" fill="#F5F5F5"/>
<path d="M239.729 429.17V437.86H342.6V429.17H289.16H239.729Z" fill="#EBEBEB"/>
<path d="M291.16 468.92H339.26V437.86H342.6V429.17H289.16V437.05L291.16 468.92Z" fill="#EBEBEB"/>
<path d="M276.47 442.86H257.1V447.54H276.47V442.86Z" fill="#E0E0E0"/>
<path d="M279.48 453.39H254.6V463.26H279.48V453.39Z" fill="white"/>
<path d="M258.43 398.15V429.21H303.86H353.96V398.15H258.43Z" fill="#F5F5F5"/>
<path d="M254.42 389.46V398.15H357.3V389.46H303.86H254.42Z" fill="#EBEBEB"/>
<path d="M305.86 429.21H353.96V398.15H357.3V389.46H303.86V397.35L305.86 429.21Z" fill="#EBEBEB"/>
<path d="M291.16 403.16H271.79V407.84H291.16V403.16Z" fill="#E0E0E0"/>
<path d="M294.18 413.68H269.3V423.55H294.18V413.68Z" fill="white"/>
<path d="M464.07 469.16C464.07 469.3 368.22 469.42 250.01 469.42C131.8 469.42 35.9297 469.3 35.9297 469.16C35.9297 469.02 131.76 468.9 250.01 468.9C368.26 468.9 464.07 469 464.07 469.16Z" fill="#263238"/>
<path d="M398.791 245.72H249.771C246.247 245.72 243.391 248.576 243.391 252.1V329.24C243.391 332.764 246.247 335.62 249.771 335.62H398.791C402.314 335.62 405.171 332.764 405.171 329.24V252.1C405.171 248.576 402.314 245.72 398.791 245.72Z" fill="white"/>
<path d="M398.8 335.62C398.8 335.62 399.23 335.62 400.05 335.47C401.266 335.207 402.38 334.599 403.26 333.72C403.902 333.073 404.396 332.295 404.71 331.44C404.89 330.946 405.011 330.432 405.07 329.91C405.07 329.37 405.07 328.79 405.07 328.19C405.07 325.79 405.07 323.02 405.07 319.91C405.07 307.44 405.02 289.42 404.99 267.15C404.99 264.36 404.99 261.51 404.99 258.6V254.18C404.99 252.69 405.14 251.18 404.53 249.8C404.109 248.755 403.411 247.845 402.51 247.168C401.61 246.491 400.541 246.074 399.42 245.96C398.68 245.91 397.86 245.96 397.08 245.96H387.43H345.61H249.79C248.77 245.958 247.765 246.211 246.867 246.697C245.969 247.182 245.207 247.885 244.65 248.74C244.083 249.587 243.739 250.564 243.65 251.58C243.6 252.58 243.65 253.68 243.65 254.72V291.7C243.65 299.7 243.65 307.567 243.65 315.3V326.74C243.65 327.68 243.65 328.63 243.65 329.55C243.696 330.45 243.935 331.33 244.35 332.13C244.776 332.915 245.367 333.6 246.081 334.136C246.796 334.673 247.617 335.049 248.49 335.24C249.379 335.383 250.281 335.43 251.18 335.38H290.25H326.69L379.45 335.46L393.79 335.51H397.52H398.8H397.52H393.79L379.45 335.56L326.69 335.64H290.25H251.18C250.247 335.689 249.312 335.638 248.39 335.49C247.448 335.287 246.561 334.881 245.79 334.301C245.02 333.721 244.386 332.98 243.93 332.13C243.471 331.272 243.208 330.322 243.16 329.35C243.16 328.35 243.16 327.47 243.16 326.52C243.16 322.75 243.16 318.93 243.16 315.08V291.7C243.16 283.7 243.16 275.55 243.16 267.25V254.75C243.16 253.69 243.16 252.67 243.16 251.57C243.235 250.477 243.578 249.419 244.16 248.49C244.768 247.566 245.592 246.804 246.56 246.27C247.54 245.749 248.631 245.471 249.74 245.46H345.56H387.38H397.03C397.83 245.46 398.59 245.46 399.41 245.46C400.212 245.544 400.992 245.774 401.71 246.14C403.137 246.864 404.256 248.078 404.86 249.56C405.153 250.285 405.309 251.058 405.32 251.84C405.32 252.59 405.32 253.34 405.32 254.09V258.51C405.32 261.417 405.32 264.267 405.32 267.06C405.32 289.33 405.25 307.35 405.23 319.82C405.23 322.93 405.23 325.7 405.23 328.1C405.23 328.7 405.23 329.27 405.23 329.83C405.166 330.363 405.039 330.887 404.85 331.39C404.528 332.259 404.019 333.048 403.36 333.7C402.46 334.585 401.319 335.187 400.08 335.43C399.77 335.488 399.456 335.521 399.14 335.53L398.8 335.62Z" fill="#263238"/>
<path d="M299.76 277.49V278.61H295.08V272.61H299.64V273.73H296.47V275H299.27V276.09H296.47V277.49H299.76Z" fill="#263238"/>
<path d="M306.421 272.57V278.57H305.271L302.271 274.9V278.57H300.891V272.57H302.001L305.001 276.24V272.57H306.421Z" fill="#263238"/>
<path d="M309.11 273.71H307.17V272.57H312.44V273.71H310.5V278.61H309.11V273.71Z" fill="#263238"/>
<path d="M317.87 277.49V278.61H313.19V272.61H317.76V273.73H314.58V275H317.39V276.09H314.58V277.49H317.87Z" fill="#263238"/>
<path d="M322.84 278.61L321.67 276.93H320.39V278.61H319V272.61H321.62C323.23 272.61 324.24 273.44 324.24 274.8C324.252 275.207 324.14 275.607 323.918 275.949C323.697 276.29 323.376 276.556 323 276.71L324.35 278.65L322.84 278.61ZM321.53 273.71H320.39V275.81H321.53C322.38 275.81 322.81 275.42 322.81 274.76C322.81 274.1 322.38 273.71 321.53 273.71Z" fill="#263238"/>
<path d="M327.4 275.59C327.44 274.938 327.669 274.313 328.061 273.791C328.453 273.268 328.99 272.873 329.605 272.654C330.22 272.434 330.885 272.4 331.519 272.556C332.153 272.712 332.727 273.05 333.17 273.53L332.27 274.36C332.084 274.139 331.851 273.961 331.588 273.838C331.326 273.715 331.04 273.651 330.75 273.65C330.261 273.685 329.804 273.904 329.469 274.263C329.135 274.622 328.95 275.095 328.95 275.585C328.95 276.075 329.135 276.548 329.469 276.907C329.804 277.266 330.261 277.485 330.75 277.52C331.041 277.524 331.329 277.463 331.592 277.34C331.855 277.217 332.087 277.036 332.27 276.81L333.17 277.64C332.73 278.124 332.157 278.467 331.522 278.626C330.888 278.785 330.22 278.753 329.604 278.534C328.987 278.315 328.449 277.918 328.057 277.395C327.665 276.871 327.437 276.243 327.4 275.59Z" fill="#263238"/>
<path d="M333.61 275.59C333.574 274.928 333.738 274.271 334.079 273.704C334.421 273.136 334.925 272.684 335.526 272.406C336.128 272.128 336.799 272.036 337.452 272.144C338.106 272.251 338.713 272.553 339.193 273.008C339.674 273.464 340.007 274.054 340.149 274.701C340.291 275.348 340.235 276.023 339.989 276.639C339.743 277.254 339.318 277.781 338.769 278.152C338.221 278.523 337.573 278.721 336.91 278.72C336.485 278.745 336.059 278.682 335.659 278.535C335.258 278.389 334.892 278.162 334.583 277.869C334.274 277.576 334.028 277.222 333.861 276.83C333.694 276.438 333.608 276.016 333.61 275.59ZM338.8 275.59C338.792 275.218 338.675 274.857 338.463 274.551C338.25 274.246 337.952 274.01 337.606 273.873C337.26 273.736 336.882 273.704 336.518 273.781C336.154 273.859 335.821 274.042 335.56 274.308C335.3 274.574 335.124 274.91 335.054 275.276C334.985 275.641 335.024 276.019 335.168 276.362C335.313 276.705 335.555 276.998 335.865 277.204C336.175 277.41 336.538 277.52 336.91 277.52C337.164 277.526 337.415 277.479 337.65 277.384C337.884 277.288 338.097 277.146 338.274 276.965C338.451 276.784 338.589 276.569 338.68 276.332C338.77 276.096 338.811 275.843 338.8 275.59Z" fill="#263238"/>
<path d="M341.28 272.57H344C344.795 272.57 345.558 272.886 346.121 273.449C346.684 274.011 347 274.774 347 275.57C347 276.366 346.684 277.129 346.121 277.691C345.558 278.254 344.795 278.57 344 278.57H341.26L341.28 272.57ZM343.95 277.46C344.446 277.46 344.921 277.263 345.272 276.912C345.623 276.562 345.82 276.086 345.82 275.59C345.82 275.094 345.623 274.618 345.272 274.268C344.921 273.917 344.446 273.72 343.95 273.72H342.68V277.46H343.95Z" fill="#263238"/>
<path d="M353.09 277.49V278.61H348.41V272.61H353V273.73H349.8V275H352.61V276.09H349.8V277.49H353.09Z" fill="#263238"/>
<path d="M276.82 288.26H262.13C259.948 288.26 258.18 290.028 258.18 292.21V315.08C258.18 317.262 259.948 319.03 262.13 319.03H276.82C279.001 319.03 280.77 317.262 280.77 315.08V292.21C280.77 290.028 279.001 288.26 276.82 288.26Z" fill="#EBEBEB"/>
<path d="M305.031 288.26H290.341C288.159 288.26 286.391 290.028 286.391 292.21V315.08C286.391 317.262 288.159 319.03 290.341 319.03H305.031C307.212 319.03 308.981 317.262 308.981 315.08V292.21C308.981 290.028 307.212 288.26 305.031 288.26Z" fill="#EBEBEB"/>
<path d="M333.241 288.26H318.551C316.369 288.26 314.601 290.028 314.601 292.21V315.08C314.601 317.262 316.369 319.03 318.551 319.03H333.241C335.422 319.03 337.191 317.262 337.191 315.08V292.21C337.191 290.028 335.422 288.26 333.241 288.26Z" fill="#EBEBEB"/>
<path d="M361.44 288.26H346.75C344.568 288.26 342.8 290.028 342.8 292.21V315.08C342.8 317.262 344.568 319.03 346.75 319.03H361.44C363.621 319.03 365.39 317.262 365.39 315.08V292.21C365.39 290.028 363.621 288.26 361.44 288.26Z" fill="#EBEBEB"/>
<path d="M389.65 288.26H374.96C372.778 288.26 371.01 290.028 371.01 292.21V315.08C371.01 317.262 372.778 319.03 374.96 319.03H389.65C391.831 319.03 393.6 317.262 393.6 315.08V292.21C393.6 290.028 391.831 288.26 389.65 288.26Z" fill="#EBEBEB"/>
<path d="M274.4 306C274.4 308.19 272.7 309.62 270.4 309.62C267.24 309.62 265.57 307.35 265.57 303.62C265.57 299.56 267.74 297.46 270.91 297.46C271.86 297.417 272.803 297.631 273.64 298.08L273.28 298.78C272.556 298.383 271.736 298.192 270.91 298.23C268.22 298.23 266.45 300 266.45 303.49C266.45 303.972 266.483 304.453 266.55 304.93C266.832 304.157 267.358 303.497 268.05 303.051C268.741 302.605 269.56 302.397 270.38 302.46C272.78 302.46 274.4 303.86 274.4 306ZM273.52 306C273.52 304.29 272.29 303.17 270.26 303.17C269.85 303.124 269.435 303.164 269.041 303.286C268.647 303.408 268.282 303.61 267.97 303.879C267.657 304.148 267.404 304.479 267.225 304.851C267.046 305.223 266.946 305.628 266.93 306.04C266.93 307.45 268.11 308.85 270.36 308.85C270.76 308.894 271.164 308.852 271.546 308.729C271.929 308.605 272.281 308.402 272.579 308.133C272.878 307.864 273.116 307.535 273.278 307.167C273.44 306.8 273.523 306.402 273.52 306Z" fill="#FF725E"/>
<path d="M302.3 306.23H299.78V309.56H298.92V306.23H292.07V305.6L298.59 297.55H299.59L293.19 305.46H298.96V302.53H299.8V305.46H302.32L302.3 306.23Z" fill="#FF725E"/>
<path d="M331.39 311.27C327.909 311.617 324.401 311.617 320.92 311.27C324.401 310.923 327.909 310.923 331.39 311.27Z" fill="#FF725E"/>
<path d="M253.66 257.15C255.013 257.15 256.11 256.053 256.11 254.7C256.11 253.347 255.013 252.25 253.66 252.25C252.307 252.25 251.21 253.347 251.21 254.7C251.21 256.053 252.307 257.15 253.66 257.15Z" fill="#263238"/>
<path d="M263.171 254.7C263.171 255.185 263.027 255.658 262.758 256.061C262.488 256.464 262.106 256.778 261.658 256.964C261.21 257.149 260.718 257.197 260.243 257.103C259.767 257.008 259.331 256.775 258.988 256.432C258.645 256.09 258.412 255.653 258.318 255.178C258.223 254.703 258.272 254.21 258.457 253.762C258.642 253.315 258.956 252.932 259.359 252.663C259.762 252.394 260.236 252.25 260.721 252.25C261.37 252.25 261.993 252.508 262.453 252.968C262.912 253.427 263.171 254.05 263.171 254.7Z" fill="#263238"/>
<path d="M267.65 257.15C269.003 257.15 270.1 256.053 270.1 254.7C270.1 253.347 269.003 252.25 267.65 252.25C266.297 252.25 265.2 253.347 265.2 254.7C265.2 256.053 266.297 257.15 267.65 257.15Z" fill="#263238"/>
<path d="M405.42 261.6C405.42 261.74 369.19 261.86 324.52 261.86C279.85 261.86 243.62 261.74 243.62 261.6C243.62 261.46 279.83 261.34 324.52 261.34C369.21 261.34 405.42 261.45 405.42 261.6Z" fill="#263238"/>
<path d="M375.711 48.29H197.071C193.448 48.29 190.511 51.227 190.511 54.85V219.2C190.511 222.823 193.448 225.76 197.071 225.76H375.711C379.334 225.76 382.271 222.823 382.271 219.2V54.85C382.271 51.227 379.334 48.29 375.711 48.29Z" fill="white"/>
<path d="M375.71 225.76H376.18C376.645 225.722 377.104 225.634 377.55 225.5C378.422 225.233 379.229 224.786 379.918 224.189C380.607 223.591 381.163 222.856 381.55 222.03C382.089 220.791 382.302 219.435 382.17 218.09C382.17 216.6 382.17 214.96 382.17 213.19C382.17 209.65 382.17 205.56 382.17 200.96C382.17 182.56 382.12 155.96 382.08 123.04C382.08 106.59 382.08 88.58 382.08 69.23C382.08 64.4033 382.08 59.4933 382.08 54.5C382.005 53.2792 381.578 52.1062 380.85 51.1231C380.123 50.1399 379.126 49.3886 377.98 48.96C376.789 48.5833 375.535 48.4473 374.29 48.56H338.6H197.09C195.589 48.5687 194.139 49.111 193 50.09C191.824 51.0833 191.055 52.4754 190.84 54C190.771 54.7646 190.748 55.5326 190.77 56.3V117.87C190.77 141.54 190.77 164.37 190.77 186.12C190.77 197 190.77 207.597 190.77 217.91C190.77 218.55 190.77 219.21 190.77 219.82C190.828 220.434 190.973 221.037 191.2 221.61C191.663 222.758 192.452 223.746 193.47 224.45C194.478 225.153 195.672 225.543 196.9 225.57H215.41H269.22L347.14 225.66H368.32H373.83H375.71H373.83H368.32L347.14 225.71L269.22 225.79H215.41H196.89C195.569 225.757 194.287 225.338 193.201 224.584C192.115 223.831 191.274 222.776 190.78 221.55C190.535 220.935 190.377 220.289 190.31 219.63C190.26 218.95 190.31 218.33 190.31 217.68C190.31 207.367 190.31 196.77 190.31 185.89C190.31 164.14 190.31 141.31 190.31 117.64C190.31 105.8 190.31 93.7633 190.31 81.53V56.25C190.283 55.4591 190.31 54.6672 190.39 53.88C190.61 52.2536 191.422 50.7654 192.67 49.7C193.896 48.6281 195.462 48.0258 197.09 48H338.6H374.23C375.53 47.8879 376.839 48.0375 378.08 48.44C379.306 48.899 380.374 49.7032 381.153 50.7555C381.932 51.8078 382.389 53.0632 382.47 54.37C382.47 59.37 382.47 64.29 382.47 69.13C382.47 88.48 382.47 106.49 382.47 122.94C382.47 155.84 382.41 182.46 382.39 200.86C382.39 205.46 382.39 209.55 382.39 213.09C382.39 214.86 382.39 216.5 382.39 217.99C382.517 219.358 382.29 220.735 381.73 221.99C381.229 223.041 380.455 223.939 379.49 224.592C378.525 225.244 377.403 225.627 376.24 225.7L375.71 225.76Z" fill="#263238"/>
<path d="M205 60.59C205 61.247 204.805 61.8893 204.44 62.4355C204.075 62.9817 203.556 63.4072 202.949 63.6582C202.341 63.9092 201.673 63.9743 201.029 63.8454C200.385 63.7165 199.793 63.3993 199.329 62.934C198.865 62.4687 198.55 61.8762 198.423 61.2315C198.296 60.5868 198.363 59.919 198.616 59.3125C198.869 58.706 199.296 58.1882 199.843 57.8246C200.39 57.461 201.033 57.268 201.69 57.27C202.126 57.27 202.557 57.3559 202.959 57.5229C203.362 57.6899 203.727 57.9346 204.034 58.243C204.342 58.5514 204.586 58.9175 204.751 59.3202C204.917 59.723 205.002 60.1545 205 60.59Z" fill="#263238"/>
<path d="M211.35 63.9C213.178 63.9 214.66 62.418 214.66 60.59C214.66 58.7619 213.178 57.28 211.35 57.28C209.522 57.28 208.04 58.7619 208.04 60.59C208.04 62.418 209.522 63.9 211.35 63.9Z" fill="#263238"/>
<path d="M221.031 63.9C222.859 63.9 224.341 62.418 224.341 60.59C224.341 58.7619 222.859 57.28 221.031 57.28C219.203 57.28 217.721 58.7619 217.721 60.59C217.721 62.418 219.203 63.9 221.031 63.9Z" fill="#263238"/>
<path d="M382.271 70C382.271 70.15 339.341 70.26 286.391 70.26C233.441 70.26 190.511 70.15 190.511 70C190.511 69.85 233.431 69.74 286.391 69.74C339.351 69.74 382.271 69.85 382.271 70Z" fill="#263238"/>
<path d="M313.481 136.85C313.481 136.85 313.551 136.74 313.711 136.54L313.841 136.37L313.971 136.14C314.081 135.954 314.178 135.76 314.261 135.56C314.261 135.45 314.361 135.33 314.401 135.2L314.521 134.78C314.564 134.626 314.598 134.469 314.621 134.31C314.621 134.14 314.681 133.97 314.691 133.79C314.756 132.958 314.716 132.122 314.571 131.3C314.15 129.051 313.38 126.882 312.291 124.87C310.885 122.185 309.242 119.631 307.381 117.24C305.14 114.332 302.697 111.585 300.071 109.02C297.063 106.068 293.852 103.331 290.461 100.83C288.671 99.51 286.781 98.23 284.791 97.03C282.762 95.7905 280.654 94.6848 278.481 93.72C276.247 92.7004 273.896 91.9614 271.481 91.52C270.246 91.3001 268.985 91.2697 267.741 91.43C267.116 91.5186 266.507 91.6936 265.931 91.95C265.365 92.2275 264.854 92.6034 264.421 93.06C264.007 93.5389 263.688 94.092 263.481 94.69C263.293 95.2929 263.188 95.9187 263.171 96.55C263.154 97.8052 263.326 99.0558 263.681 100.26C264.398 102.616 265.405 104.873 266.681 106.98C267.882 109.029 269.219 110.997 270.681 112.87C272.101 114.71 273.591 116.45 275.101 118.08C277.973 121.165 281.061 124.042 284.341 126.69C287.187 129.011 290.194 131.126 293.341 133.02C295.929 134.594 298.653 135.933 301.481 137.02C303.606 137.868 305.849 138.387 308.131 138.56C308.961 138.601 309.793 138.544 310.611 138.39C310.791 138.39 310.951 138.3 311.111 138.26C311.267 138.219 311.42 138.169 311.571 138.11L311.971 137.94L312.321 137.76C312.511 137.656 312.692 137.536 312.861 137.4L313.071 137.25L313.231 137.1C313.411 136.92 313.511 136.84 313.511 136.84L313.241 137.11L313.081 137.26L312.881 137.42C312.71 137.558 312.526 137.679 312.331 137.78L312.001 138L311.591 138.17C311.445 138.232 311.294 138.282 311.141 138.32C310.974 138.377 310.803 138.424 310.631 138.46C309.809 138.628 308.968 138.689 308.131 138.64C305.843 138.484 303.592 137.975 301.461 137.13C298.623 136.044 295.889 134.705 293.291 133.13C290.145 131.235 287.137 129.12 284.291 126.8C281.001 124.156 277.907 121.278 275.031 118.19C273.521 116.56 272.031 114.82 270.601 112.98C269.142 111.097 267.806 109.123 266.601 107.07C265.324 104.953 264.316 102.686 263.601 100.32C263.236 99.1005 263.061 97.8325 263.081 96.56C263.102 95.9184 263.209 95.2827 263.401 94.67C263.628 94.0502 263.967 93.4773 264.401 92.98C264.844 92.5048 265.373 92.1179 265.961 91.84C266.55 91.5771 267.172 91.3954 267.811 91.3C269.071 91.1396 270.349 91.1699 271.601 91.39C274.033 91.8351 276.402 92.5809 278.651 93.61C280.828 94.576 282.939 95.6851 284.971 96.93C286.971 98.13 288.861 99.41 290.651 100.74C294.047 103.246 297.259 105.993 300.261 108.96C302.893 111.529 305.34 114.283 307.581 117.2C309.437 119.598 311.073 122.158 312.471 124.85C313.558 126.872 314.324 129.052 314.741 131.31C314.88 132.139 314.914 132.982 314.841 133.82C314.825 133.992 314.799 134.162 314.761 134.33C314.745 134.49 314.711 134.647 314.661 134.8L314.541 135.23C314.498 135.353 314.448 135.473 314.391 135.59C314.315 135.795 314.215 135.99 314.091 136.17C314.055 136.251 314.012 136.328 313.961 136.4L313.831 136.57L313.481 136.85Z" fill="#FF725E"/>
<path d="M322.55 114.93V114.55V114.34C322.55 114.26 322.55 114.18 322.5 114.08C322.466 113.865 322.409 113.654 322.33 113.45C322.33 113.34 322.25 113.21 322.2 113.09L322 112.69C321.936 112.545 321.855 112.407 321.76 112.28C321.674 112.13 321.577 111.986 321.47 111.85C320.973 111.181 320.387 110.583 319.73 110.07C317.912 108.673 315.888 107.567 313.73 106.79C310.896 105.718 307.971 104.905 304.99 104.36C301.362 103.679 297.689 103.258 294 103.1C289.789 102.895 285.569 102.985 281.37 103.37C279.16 103.58 276.9 103.89 274.61 104.32C272.271 104.742 269.963 105.32 267.7 106.05C265.349 106.762 263.098 107.77 261 109.05C259.932 109.706 258.971 110.522 258.15 111.47C257.745 111.951 257.408 112.486 257.15 113.06C256.903 113.643 256.768 114.267 256.75 114.9C256.77 115.532 256.902 116.155 257.14 116.74C257.402 117.312 257.738 117.847 258.14 118.33C258.966 119.279 259.931 120.098 261 120.76C263.101 122.034 265.351 123.042 267.7 123.76C269.965 124.481 272.273 125.059 274.61 125.49C276.9 125.92 279.16 126.22 281.37 126.43C285.568 126.823 289.789 126.916 294 126.71C297.69 126.562 301.366 126.162 305 125.51C307.981 124.965 310.906 124.152 313.74 123.08C315.894 122.295 317.917 121.189 319.74 119.8C320.395 119.284 320.98 118.686 321.48 118.02C321.587 117.88 321.684 117.733 321.77 117.58C321.865 117.452 321.946 117.315 322.01 117.17L322.21 116.78C322.26 116.65 322.3 116.53 322.34 116.41C322.42 116.207 322.477 115.996 322.51 115.78C322.51 115.69 322.51 115.61 322.56 115.53V115.32V114.93C322.56 114.93 322.56 115.06 322.56 115.32V115.53C322.56 115.61 322.56 115.69 322.56 115.79C322.53 116.005 322.476 116.216 322.4 116.42C322.4 116.54 322.32 116.66 322.27 116.79L322.08 117.19C322.01 117.335 321.929 117.475 321.84 117.61C321.752 117.759 321.655 117.902 321.55 118.04C321.053 118.715 320.468 119.32 319.81 119.84C317.994 121.248 315.97 122.365 313.81 123.15C310.974 124.233 308.046 125.057 305.06 125.61C301.428 126.293 297.753 126.721 294.06 126.89C289.846 127.104 285.622 127.017 281.42 126.63C279.2 126.42 276.93 126.12 274.64 125.69C272.297 125.257 269.982 124.68 267.71 123.96C265.35 123.246 263.089 122.238 260.98 120.96C259.898 120.295 258.924 119.469 258.09 118.51C257.685 118.014 257.349 117.466 257.09 116.88C256.82 116.283 256.681 115.635 256.681 114.98C256.681 114.325 256.82 113.677 257.09 113.08C257.352 112.496 257.688 111.948 258.09 111.45C258.932 110.492 259.913 109.666 261 109C263.114 107.724 265.378 106.716 267.74 106C270.006 105.271 272.318 104.693 274.66 104.27C276.96 103.84 279.22 103.54 281.44 103.33C285.614 102.924 289.811 102.814 294 103C297.693 103.167 301.369 103.598 305 104.29C307.986 104.838 310.915 105.658 313.75 106.74C315.91 107.525 317.934 108.642 319.75 110.05C320.406 110.572 320.991 111.177 321.49 111.85C321.597 111.99 321.694 112.137 321.78 112.29C321.872 112.423 321.952 112.564 322.02 112.71L322.21 113.1C322.26 113.23 322.3 113.36 322.34 113.47C322.416 113.677 322.47 113.892 322.5 114.11C322.5 114.2 322.5 114.29 322.5 114.36V114.58C322.55 114.8 322.55 114.93 322.55 114.93Z" fill="#FF725E"/>
<path d="M310.53 87.66L310.2 87.45L310.02 87.33C309.946 87.2875 309.869 87.2507 309.79 87.22C309.599 87.1158 309.398 87.0321 309.19 86.97C309.07 86.97 308.95 86.88 308.82 86.85L308.39 86.76C308.235 86.7261 308.078 86.7028 307.92 86.69C307.747 86.6797 307.573 86.6797 307.4 86.69C306.565 86.6794 305.732 86.7734 304.92 86.97C302.707 87.5575 300.596 88.478 298.66 89.7C296.076 91.2808 293.643 93.0951 291.39 95.12C288.641 97.5555 286.068 100.182 283.69 102.98C280.949 106.181 278.439 109.573 276.18 113.13C275 115 273.84 117 272.78 119C271.681 121.108 270.722 123.286 269.91 125.52C269.05 127.824 268.475 130.226 268.2 132.67C268.066 133.918 268.124 135.179 268.37 136.41C268.507 137.026 268.726 137.621 269.02 138.18C269.329 138.732 269.74 139.22 270.23 139.62C270.739 139.99 271.312 140.265 271.92 140.43C272.532 140.578 273.161 140.642 273.79 140.62C275.045 140.55 276.282 140.29 277.46 139.85C279.761 138.977 281.944 137.822 283.96 136.41C285.92 135.067 287.791 133.597 289.56 132.01C291.3 130.46 292.93 128.86 294.45 127.24C297.327 124.161 299.983 120.882 302.4 117.43C304.519 114.431 306.424 111.287 308.1 108.02C309.497 105.333 310.649 102.525 311.54 99.63C312.24 97.4479 312.6 95.1714 312.61 92.88C312.607 92.0485 312.493 91.2211 312.27 90.42C312.27 90.24 312.16 90.08 312.11 89.92C312.06 89.76 312 89.62 311.93 89.48L311.74 89.09C311.67 88.97 311.59 88.86 311.53 88.76C311.416 88.5723 311.282 88.3978 311.13 88.24L310.97 88.04L310.81 87.9L310.53 87.64L310.82 87.89L310.98 88.03C311.041 88.0887 311.098 88.1523 311.15 88.22C311.301 88.3792 311.435 88.5535 311.55 88.74C311.62 88.85 311.7 88.95 311.77 89.07L311.96 89.47C312.037 89.6103 312.101 89.7576 312.15 89.91C312.2 90.07 312.27 90.23 312.31 90.41C312.541 91.2133 312.662 92.0442 312.67 92.88C312.674 95.1775 312.319 97.4615 311.62 99.65C310.732 102.553 309.588 105.371 308.2 108.07C306.524 111.344 304.619 114.495 302.5 117.5C300.089 120.963 297.432 124.248 294.55 127.33C293.03 128.96 291.4 130.57 289.65 132.12C287.877 133.71 286.003 135.183 284.04 136.53C282.017 137.952 279.823 139.115 277.51 139.99C276.319 140.435 275.069 140.698 273.8 140.77C273.154 140.792 272.509 140.728 271.88 140.58C271.254 140.403 270.664 140.115 270.14 139.73C269.635 139.319 269.211 138.817 268.89 138.25C268.587 137.679 268.362 137.07 268.22 136.44C267.977 135.195 267.923 133.921 268.06 132.66C268.331 130.201 268.908 127.785 269.78 125.47C270.592 123.233 271.551 121.051 272.65 118.94C273.72 116.86 274.87 114.88 276.06 113C278.332 109.444 280.852 106.053 283.6 102.85C285.983 100.052 288.563 97.4291 291.32 95C293.585 92.9774 296.028 91.1633 298.62 89.58C300.566 88.3633 302.687 87.4527 304.91 86.88C305.724 86.6786 306.561 86.5845 307.4 86.6C307.58 86.6 307.75 86.6 307.92 86.6C308.081 86.612 308.242 86.6354 308.4 86.67L308.83 86.76L309.2 86.89C309.409 86.9551 309.61 87.0423 309.8 87.15C309.879 87.1807 309.956 87.2175 310.03 87.26L310.21 87.39L310.53 87.66Z" fill="#FF725E"/>
<path d="M256.351 128.52C256.521 128.691 256.636 128.908 256.683 129.145C256.729 129.381 256.705 129.626 256.612 129.849C256.52 130.071 256.363 130.261 256.163 130.395C255.962 130.529 255.727 130.6 255.486 130.6C255.245 130.6 255.009 130.529 254.809 130.395C254.608 130.261 254.452 130.071 254.359 129.849C254.267 129.626 254.242 129.381 254.289 129.145C254.335 128.908 254.451 128.691 254.621 128.52C254.734 128.406 254.869 128.316 255.017 128.254C255.166 128.192 255.325 128.16 255.486 128.16C255.646 128.16 255.806 128.192 255.954 128.254C256.102 128.316 256.237 128.406 256.351 128.52Z" fill="#FF725E"/>
<path d="M325.34 90.63C325.342 90.8737 325.271 91.1125 325.137 91.3161C325.003 91.5196 324.812 91.6789 324.588 91.7735C324.363 91.8681 324.115 91.8939 323.876 91.8476C323.637 91.8013 323.417 91.6849 323.244 91.5133C323.071 91.3417 322.953 91.1225 322.904 90.8837C322.856 90.6448 322.88 90.397 322.973 90.1716C323.065 89.9463 323.223 89.7536 323.425 89.618C323.628 89.4824 323.866 89.41 324.11 89.41C324.271 89.4087 324.431 89.4393 324.58 89.5C324.729 89.5607 324.865 89.6504 324.979 89.7638C325.093 89.8772 325.184 90.0121 325.246 90.1608C325.308 90.3095 325.34 90.469 325.34 90.63Z" fill="#FF725E"/>
<path d="M264.07 132.54C264.07 132.601 264.052 132.661 264.018 132.712C263.984 132.763 263.935 132.803 263.879 132.826C263.822 132.85 263.76 132.856 263.7 132.844C263.64 132.832 263.584 132.803 263.541 132.759C263.498 132.716 263.468 132.661 263.456 132.6C263.444 132.54 263.45 132.478 263.474 132.421C263.497 132.365 263.537 132.316 263.588 132.282C263.639 132.248 263.699 132.23 263.76 132.23C263.842 132.23 263.921 132.263 263.979 132.321C264.038 132.379 264.07 132.458 264.07 132.54Z" fill="#FF725E"/>
<path d="M270.7 98.28C270.7 98.3413 270.682 98.4012 270.648 98.4522C270.614 98.5032 270.565 98.5429 270.509 98.5664C270.452 98.5898 270.39 98.596 270.33 98.584C270.269 98.5721 270.214 98.5425 270.171 98.4992C270.128 98.4558 270.098 98.4006 270.086 98.3404C270.074 98.2803 270.08 98.218 270.104 98.1613C270.127 98.1047 270.167 98.0563 270.218 98.0222C270.269 97.9882 270.329 97.97 270.39 97.97C270.472 97.97 270.551 98.0026 270.609 98.0608C270.667 98.1189 270.7 98.1978 270.7 98.28Z" fill="#FF725E"/>
<path d="M319.19 114.93C319.19 115.012 319.158 115.091 319.1 115.149C319.041 115.207 318.963 115.24 318.88 115.24C318.798 115.24 318.719 115.207 318.661 115.149C318.603 115.091 318.57 115.012 318.57 114.93C318.57 114.848 318.603 114.769 318.661 114.711C318.719 114.653 318.798 114.62 318.88 114.62C318.963 114.62 319.041 114.653 319.1 114.711C319.158 114.769 319.19 114.848 319.19 114.93Z" fill="#FF725E"/>
<path d="M323.511 100.45C323.511 100.532 323.478 100.611 323.42 100.669C323.362 100.727 323.283 100.76 323.201 100.76C323.118 100.76 323.04 100.727 322.981 100.669C322.923 100.611 322.891 100.532 322.891 100.45C322.891 100.368 322.923 100.289 322.981 100.231C323.04 100.173 323.118 100.14 323.201 100.14C323.283 100.14 323.362 100.173 323.42 100.231C323.478 100.289 323.511 100.368 323.511 100.45Z" fill="#FF725E"/>
<path d="M302.57 121.76H298.73V100.85C298.73 98.4816 297.789 96.2102 296.114 94.5355C294.44 92.8608 292.168 91.92 289.8 91.92C287.432 91.92 285.16 92.8608 283.486 94.5355C281.811 96.2102 280.87 98.4816 280.87 100.85V121.76H277V100.85C277 97.4631 278.345 94.215 280.74 91.8202C283.135 89.4254 286.383 88.08 289.77 88.08C293.157 88.08 296.405 89.4254 298.8 91.8202C301.195 94.215 302.54 97.4631 302.54 100.85L302.57 121.76Z" fill="#FF725E"/>
<g opacity="0.3">
<path opacity="0.3" d="M302.57 121.76H298.73V100.85C298.73 98.4816 297.789 96.2102 296.114 94.5355C294.44 92.8608 292.168 91.92 289.8 91.92C287.432 91.92 285.16 92.8608 283.486 94.5355C281.811 96.2102 280.87 98.4816 280.87 100.85V121.76H277V100.85C277 97.4631 278.345 94.215 280.74 91.8202C283.135 89.4254 286.383 88.08 289.77 88.08C293.157 88.08 296.405 89.4254 298.8 91.8202C301.195 94.215 302.54 97.4631 302.54 100.85L302.57 121.76Z" fill="black"/>
</g>
<path d="M304.76 112.46H274.84C273.597 112.46 272.59 113.467 272.59 114.71V132.29C272.59 133.533 273.597 134.54 274.84 134.54H304.76C306.002 134.54 307.01 133.533 307.01 132.29V114.71C307.01 113.467 306.002 112.46 304.76 112.46Z" fill="#FF725E"/>
<g opacity="0.3">
<path opacity="0.3" d="M292.68 120.63C292.684 120.093 292.538 119.566 292.258 119.107C291.979 118.649 291.576 118.278 291.097 118.036C290.617 117.794 290.08 117.691 289.545 117.739C289.01 117.787 288.499 117.983 288.07 118.305C287.641 118.628 287.31 119.064 287.116 119.564C286.921 120.065 286.87 120.61 286.969 121.138C287.068 121.665 287.312 122.155 287.675 122.551C288.037 122.948 288.503 123.235 289.02 123.38V127.68H290.58V123.38C291.182 123.214 291.714 122.855 292.093 122.359C292.472 121.862 292.678 121.255 292.68 120.63Z" fill="black"/>
</g>
<path d="M274.43 132.45C274.35 132.45 274.28 128.77 274.28 124.23C274.28 119.69 274.35 116 274.43 116C274.51 116 274.57 119.68 274.57 124.23C274.57 128.78 274.5 132.45 274.43 132.45Z" fill="#FAFAFA"/>
<path d="M287.551 124.31C287.551 124.31 287.411 124.31 287.211 124.12C286.927 123.909 286.678 123.656 286.471 123.37C286.106 122.899 285.852 122.352 285.726 121.769C285.6 121.187 285.606 120.584 285.743 120.004C285.88 119.424 286.145 118.882 286.518 118.418C286.892 117.954 287.364 117.578 287.901 117.32C288.214 117.152 288.551 117.034 288.901 116.97C289.03 116.946 289.162 116.946 289.291 116.97C288.849 117.12 288.418 117.3 288.001 117.51C287.513 117.779 287.086 118.148 286.749 118.591C286.411 119.035 286.17 119.545 286.041 120.087C285.912 120.629 285.898 121.193 286 121.741C286.101 122.289 286.316 122.81 286.631 123.27C286.909 123.641 287.217 123.989 287.551 124.31Z" fill="#FAFAFA"/>
<path d="M340.9 153.47H234.93C229.783 153.47 225.61 157.643 225.61 162.79V163.93C225.61 169.077 229.783 173.25 234.93 173.25H340.9C346.048 173.25 350.22 169.077 350.22 163.93V162.79C350.22 157.643 346.048 153.47 340.9 153.47Z" fill="#F5F5F5"/>
<path d="M341.811 180.59H235.84C230.693 180.59 226.521 184.763 226.521 189.91V191.05C226.521 196.197 230.693 200.37 235.84 200.37H341.811C346.958 200.37 351.131 196.197 351.131 191.05V189.91C351.131 184.763 346.958 180.59 341.811 180.59Z" fill="#F5F5F5"/>
<path d="M245.301 163.2V160.34H246.491V163.16C246.491 164.16 246.911 164.53 247.631 164.53C248.351 164.53 248.771 164.13 248.771 163.16V160.34H249.941V163.2C249.941 163.815 249.696 164.405 249.261 164.84C248.826 165.276 248.236 165.52 247.621 165.52C247.005 165.52 246.415 165.276 245.98 164.84C245.545 164.405 245.301 163.815 245.301 163.2Z" fill="#263238"/>
<path d="M250.65 165.09L251.02 164.27C251.435 164.517 251.908 164.648 252.39 164.65C252.92 164.65 253.11 164.51 253.11 164.29C253.11 163.65 250.74 164.29 250.74 162.74C250.74 161.99 251.41 161.46 252.56 161.46C253.085 161.452 253.603 161.572 254.07 161.81L253.69 162.62C253.347 162.424 252.956 162.324 252.56 162.33C252.05 162.33 251.83 162.49 251.83 162.69C251.83 163.36 254.2 162.69 254.2 164.26C254.2 164.99 253.53 165.51 252.35 165.51C251.757 165.523 251.17 165.378 250.65 165.09Z" fill="#263238"/>
<path d="M258.74 163.81H255.74C255.802 164.056 255.95 164.271 256.158 164.416C256.365 164.562 256.618 164.627 256.87 164.6C257.054 164.608 257.238 164.579 257.41 164.513C257.582 164.448 257.738 164.348 257.87 164.22L258.48 164.88C258.272 165.096 258.019 165.264 257.739 165.372C257.46 165.481 257.16 165.528 256.86 165.51C256.578 165.546 256.29 165.52 256.018 165.436C255.746 165.352 255.495 165.21 255.282 165.02C255.069 164.831 254.898 164.598 254.783 164.338C254.667 164.077 254.608 163.795 254.61 163.51C254.61 163.239 254.665 162.97 254.772 162.721C254.878 162.471 255.035 162.246 255.231 162.059C255.428 161.872 255.66 161.727 255.914 161.633C256.169 161.538 256.439 161.496 256.71 161.51C256.977 161.503 257.243 161.55 257.491 161.648C257.74 161.745 257.966 161.891 258.157 162.078C258.348 162.264 258.5 162.487 258.604 162.733C258.707 162.979 258.761 163.243 258.76 163.51C258.76 163.59 258.74 163.71 258.74 163.81ZM255.74 163.14H257.67C257.613 162.928 257.487 162.741 257.313 162.608C257.138 162.474 256.925 162.402 256.705 162.402C256.486 162.402 256.272 162.474 256.098 162.608C255.924 162.741 255.798 162.928 255.74 163.14Z" fill="#263238"/>
<path d="M262.001 161.46V162.52H261.741C261.6 162.519 261.462 162.548 261.333 162.604C261.205 162.661 261.09 162.744 260.996 162.847C260.901 162.951 260.83 163.073 260.786 163.207C260.742 163.34 260.727 163.481 260.741 163.62V165.47H259.601V161.54H260.691V162C260.851 161.814 261.054 161.668 261.281 161.574C261.509 161.48 261.755 161.441 262.001 161.46Z" fill="#263238"/>
<path d="M266.661 163.2V165.45H265.521V163.38C265.521 162.74 265.231 162.45 264.721 162.45C264.211 162.45 263.781 162.79 263.781 163.51V165.45H262.641V161.52H263.731V162C263.899 161.828 264.102 161.693 264.326 161.603C264.55 161.514 264.79 161.472 265.031 161.48C265.256 161.465 265.483 161.5 265.693 161.583C265.904 161.665 266.094 161.793 266.249 161.957C266.405 162.122 266.522 162.318 266.594 162.533C266.665 162.748 266.688 162.975 266.661 163.2Z" fill="#263238"/>
<path d="M271.171 163.21V165.45H270.101V165C269.969 165.191 269.788 165.343 269.576 165.44C269.365 165.537 269.132 165.575 268.901 165.55C267.981 165.55 267.431 165.04 267.431 164.36C267.431 163.68 267.921 163.18 269.121 163.18H270.001C270.001 162.7 269.711 162.41 269.091 162.41C268.684 162.409 268.288 162.538 267.961 162.78L267.551 161.98C268.056 161.653 268.649 161.486 269.251 161.5C270.471 161.46 271.171 162 271.171 163.21ZM270.031 164.21V163.81H269.251C268.711 163.81 268.551 164.01 268.551 164.27C268.551 164.53 268.791 164.75 269.191 164.75C269.365 164.755 269.537 164.706 269.682 164.609C269.827 164.513 269.938 164.373 270.001 164.21H270.031Z" fill="#263238"/>
<path d="M278.84 163.2V165.45H277.7V163.38C277.7 162.74 277.42 162.45 276.96 162.45C276.5 162.45 276.09 162.78 276.09 163.45V165.45H275V163.38C275 162.74 274.73 162.45 274.25 162.45C273.77 162.45 273.39 162.78 273.39 163.45V165.45H272.2V161.52H273.29V162C273.445 161.829 273.635 161.694 273.848 161.604C274.06 161.514 274.29 161.472 274.52 161.48C274.774 161.468 275.027 161.522 275.255 161.636C275.482 161.75 275.677 161.92 275.82 162.13C275.99 161.919 276.207 161.75 276.453 161.637C276.7 161.524 276.969 161.47 277.24 161.48C277.464 161.466 277.689 161.502 277.898 161.586C278.106 161.669 278.294 161.797 278.447 161.962C278.6 162.126 278.714 162.323 278.782 162.537C278.85 162.751 278.87 162.977 278.84 163.2Z" fill="#263238"/>
<path d="M283.741 163.81H280.741C280.792 164.059 280.936 164.28 281.144 164.427C281.352 164.574 281.608 164.636 281.861 164.6C282.044 164.608 282.228 164.578 282.4 164.512C282.571 164.447 282.728 164.348 282.861 164.22L283.461 164.88C283.253 165.097 283 165.265 282.72 165.374C282.44 165.483 282.14 165.529 281.841 165.51C281.559 165.544 281.272 165.518 281.001 165.433C280.73 165.347 280.48 165.206 280.269 165.016C280.057 164.827 279.887 164.595 279.772 164.335C279.657 164.075 279.599 163.794 279.601 163.51C279.6 163.239 279.655 162.97 279.762 162.721C279.869 162.471 280.025 162.246 280.221 162.059C280.418 161.872 280.65 161.727 280.905 161.633C281.159 161.538 281.43 161.496 281.701 161.51C282.231 161.51 282.74 161.721 283.115 162.096C283.49 162.471 283.701 162.98 283.701 163.51C283.761 163.59 283.751 163.71 283.741 163.81ZM280.741 163.14H282.681C282.648 162.903 282.527 162.687 282.341 162.537C282.155 162.387 281.919 162.312 281.681 162.33C281.453 162.326 281.232 162.406 281.06 162.556C280.888 162.706 280.778 162.914 280.751 163.14H280.741Z" fill="#263238"/>
<path d="M291.28 163.45C291.28 164.76 290.68 165.51 289.78 165.51C289.567 165.524 289.355 165.47 289.175 165.354C288.995 165.239 288.857 165.069 288.78 164.87C288.647 165.078 288.462 165.247 288.242 165.359C288.022 165.472 287.776 165.524 287.53 165.51C287.073 165.462 286.649 165.247 286.341 164.905C286.033 164.564 285.863 164.12 285.863 163.66C285.863 163.2 286.033 162.756 286.341 162.415C286.649 162.073 287.073 161.858 287.53 161.81C287.742 161.8 287.953 161.839 288.147 161.924C288.342 162.009 288.514 162.138 288.65 162.3V161.87H289.65V164.23C289.65 164.58 289.8 164.7 290 164.7C290.2 164.7 290.54 164.31 290.54 163.47C290.544 163.121 290.475 162.775 290.337 162.455C290.199 162.134 289.995 161.846 289.739 161.609C289.482 161.373 289.179 161.193 288.849 161.081C288.518 160.969 288.168 160.928 287.82 160.96C287.117 160.96 286.443 161.239 285.946 161.736C285.449 162.233 285.17 162.907 285.17 163.61C285.17 164.313 285.449 164.987 285.946 165.484C286.443 165.981 287.117 166.26 287.82 166.26C288.318 166.259 288.809 166.15 289.26 165.94L289.49 166.61C288.966 166.849 288.396 166.969 287.82 166.96C287.365 166.985 286.91 166.917 286.483 166.76C286.056 166.603 285.665 166.361 285.334 166.048C285.003 165.735 284.74 165.357 284.56 164.939C284.38 164.521 284.287 164.07 284.287 163.615C284.287 163.16 284.38 162.709 284.56 162.291C284.74 161.873 285.003 161.495 285.334 161.182C285.665 160.869 286.056 160.627 286.483 160.47C286.91 160.313 287.365 160.245 287.82 160.27C288.26 160.234 288.703 160.29 289.12 160.433C289.537 160.576 289.921 160.805 290.245 161.103C290.57 161.402 290.83 161.765 291.008 162.168C291.186 162.572 291.279 163.009 291.28 163.45ZM288.67 163.66C288.684 163.532 288.671 163.402 288.631 163.28C288.591 163.157 288.525 163.045 288.438 162.95C288.351 162.855 288.244 162.78 288.126 162.73C288.007 162.68 287.879 162.656 287.75 162.66C287.485 162.66 287.231 162.765 287.043 162.953C286.855 163.14 286.75 163.395 286.75 163.66C286.75 163.925 286.855 164.18 287.043 164.367C287.231 164.555 287.485 164.66 287.75 164.66C287.879 164.664 288.007 164.64 288.126 164.59C288.244 164.539 288.351 164.464 288.438 164.37C288.525 164.275 288.591 164.162 288.631 164.04C288.671 163.918 288.684 163.788 288.67 163.66Z" fill="#263238"/>
<path d="M298.73 163.2V165.45H297.59V163.38C297.59 162.74 297.31 162.45 296.85 162.45C296.39 162.45 295.98 162.78 295.98 163.45V165.45H294.84V163.38C294.84 162.74 294.57 162.45 294.09 162.45C293.61 162.45 293.23 162.78 293.23 163.45V165.45H292.09V161.52H293.18V162C293.334 161.829 293.525 161.693 293.737 161.604C293.95 161.514 294.179 161.472 294.41 161.48C294.664 161.468 294.917 161.522 295.144 161.636C295.372 161.75 295.567 161.92 295.71 162.13C295.878 161.919 296.093 161.751 296.338 161.638C296.583 161.525 296.85 161.471 297.12 161.48C297.345 161.465 297.57 161.499 297.78 161.582C297.99 161.665 298.179 161.793 298.333 161.958C298.487 162.122 298.603 162.319 298.672 162.534C298.74 162.749 298.76 162.976 298.73 163.2Z" fill="#263238"/>
<path d="M303.23 163.21V165.45H302.17V165C302.038 165.191 301.857 165.343 301.646 165.44C301.434 165.537 301.201 165.575 300.97 165.55C300.05 165.55 299.5 165.04 299.5 164.36C299.5 163.68 299.99 163.18 301.19 163.18H302.09C302.09 162.7 301.8 162.41 301.19 162.41C300.783 162.405 300.385 162.535 300.06 162.78L299.65 161.98C300.153 161.655 300.741 161.488 301.34 161.5C302.54 161.46 303.23 162 303.23 163.21ZM302.09 164.21V163.81H301.31C300.78 163.81 300.61 164.01 300.61 164.27C300.61 164.53 300.85 164.75 301.25 164.75C301.429 164.762 301.608 164.716 301.759 164.618C301.91 164.521 302.026 164.378 302.09 164.21Z" fill="#263238"/>
<path d="M304.13 160.34C304.131 160.25 304.15 160.162 304.187 160.08C304.224 159.998 304.278 159.925 304.345 159.864C304.411 159.804 304.49 159.759 304.575 159.73C304.66 159.702 304.75 159.692 304.84 159.7C304.963 159.713 305.079 159.762 305.174 159.84C305.27 159.918 305.341 160.022 305.379 160.14C305.417 160.257 305.42 160.383 305.388 160.502C305.356 160.621 305.29 160.729 305.198 160.812C305.107 160.894 304.993 160.949 304.871 160.968C304.749 160.988 304.624 160.971 304.511 160.922C304.399 160.872 304.302 160.79 304.235 160.687C304.167 160.584 304.131 160.463 304.13 160.34ZM304.27 161.52H305.4V165.45H304.27V161.52Z" fill="#263238"/>
<path d="M306.471 160H307.611V165.42H306.471V160Z" fill="#263238"/>
<path d="M308.391 164.8C308.391 164.612 308.465 164.431 308.599 164.298C308.732 164.165 308.912 164.09 309.101 164.09C309.289 164.09 309.47 164.165 309.603 164.298C309.736 164.431 309.811 164.612 309.811 164.8C309.811 164.988 309.736 165.169 309.603 165.302C309.47 165.435 309.289 165.51 309.101 165.51C308.912 165.51 308.732 165.435 308.599 165.302C308.465 165.169 308.391 164.988 308.391 164.8Z" fill="#263238"/>
<path d="M310.24 163.49C310.239 163.211 310.296 162.934 310.408 162.678C310.521 162.422 310.685 162.193 310.891 162.004C311.098 161.816 311.341 161.673 311.606 161.584C311.871 161.495 312.152 161.463 312.43 161.49C312.79 161.46 313.151 161.539 313.465 161.717C313.779 161.896 314.032 162.165 314.19 162.49L313.31 162.96C313.209 162.811 313.071 162.691 312.91 162.61C312.748 162.53 312.569 162.493 312.389 162.502C312.209 162.511 312.035 162.566 311.882 162.662C311.73 162.758 311.605 162.891 311.519 163.049C311.433 163.208 311.389 163.385 311.392 163.566C311.394 163.746 311.443 163.922 311.534 164.078C311.624 164.234 311.754 164.363 311.909 164.455C312.064 164.546 312.24 164.596 312.42 164.6C312.604 164.6 312.784 164.55 312.941 164.455C313.098 164.36 313.226 164.223 313.31 164.06L314.19 164.54C314.03 164.863 313.777 165.131 313.463 165.309C313.149 165.487 312.79 165.568 312.43 165.54C312.148 165.567 311.863 165.534 311.594 165.442C311.326 165.351 311.08 165.203 310.872 165.009C310.665 164.815 310.502 164.58 310.393 164.318C310.284 164.056 310.232 163.774 310.24 163.49Z" fill="#263238"/>
<path d="M314.51 163.49C314.478 163.057 314.577 162.625 314.794 162.25C315.011 161.874 315.336 161.572 315.726 161.384C316.117 161.196 316.556 161.13 316.985 161.194C317.413 161.258 317.813 161.45 318.131 161.745C318.45 162.04 318.672 162.423 318.769 162.846C318.866 163.269 318.834 163.711 318.676 164.115C318.518 164.519 318.243 164.867 317.885 165.112C317.527 165.357 317.104 165.489 316.67 165.49C316.394 165.512 316.117 165.477 315.855 165.386C315.594 165.296 315.354 165.152 315.151 164.964C314.948 164.776 314.786 164.548 314.676 164.294C314.565 164.04 314.509 163.767 314.51 163.49ZM317.67 163.49C317.652 163.297 317.579 163.113 317.459 162.961C317.339 162.809 317.178 162.695 316.994 162.633C316.811 162.571 316.613 162.563 316.425 162.611C316.238 162.66 316.068 162.761 315.937 162.904C315.806 163.047 315.719 163.225 315.687 163.416C315.656 163.607 315.68 163.803 315.758 163.981C315.835 164.158 315.963 164.309 316.125 164.416C316.287 164.522 316.476 164.579 316.67 164.58C316.809 164.581 316.947 164.552 317.075 164.496C317.202 164.44 317.317 164.359 317.411 164.256C317.505 164.153 317.577 164.032 317.621 163.9C317.666 163.768 317.682 163.629 317.67 163.49Z" fill="#263238"/>
<path d="M326.23 163.2V165.45H325.09V163.38C325.09 162.74 324.8 162.45 324.34 162.45C323.88 162.45 323.47 162.78 323.47 163.45V165.45H322.33V163.38C322.33 162.74 322.06 162.45 321.59 162.45C321.12 162.45 320.73 162.78 320.73 163.45V165.45H319.59V161.52H320.67V162C320.826 161.829 321.018 161.693 321.233 161.603C321.447 161.514 321.678 161.471 321.91 161.48C322.163 161.467 322.415 161.52 322.641 161.634C322.867 161.748 323.06 161.919 323.2 162.13C323.371 161.92 323.588 161.752 323.834 161.639C324.08 161.526 324.349 161.472 324.62 161.48C324.845 161.465 325.07 161.499 325.28 161.582C325.49 161.665 325.679 161.793 325.833 161.958C325.987 162.122 326.103 162.319 326.172 162.534C326.24 162.749 326.26 162.976 326.23 163.2Z" fill="#263238"/>
<path d="M260.57 190.59L262.42 191.59L261.59 192.98L259.72 191.88V193.94H258.12V191.86L256.31 193L255.49 191.61L257.35 190.61L255.49 189.61L256.31 188.22L258.18 189.34V187.27H259.78V189.34L261.65 188.22L262.48 189.61L260.57 190.59Z" fill="#263238"/>
<path d="M268.281 190.59L270.131 191.59L269.301 193L267.431 191.9V193.96H265.841V191.88L264.001 193L263.181 191.61L265.031 190.61L263.181 189.61L264.001 188.22L265.871 189.34V187.27H267.461V189.34L269.331 188.22L270.161 189.61L268.281 190.59Z" fill="#263238"/>
<path d="M276 190.59L277.85 191.59L277 193L275.14 191.9V193.96H273.54V191.88L271.72 193L270.91 191.61L272.76 190.61L270.91 189.61L271.72 188.22L273.59 189.34V187.27H275.19V189.34L277.05 188.22L277.89 189.61L276 190.59Z" fill="#263238"/>
<path d="M283.69 190.59L285.54 191.59L284.71 192.98L282.84 191.88V193.94H281.24V191.86L279.43 193L278.61 191.61L280.47 190.61L278.61 189.61L279.43 188.22L281.3 189.34V187.27H282.9V189.34L284.77 188.22L285.6 189.61L283.69 190.59Z" fill="#263238"/>
<path d="M291.4 190.59L293.25 191.59L292.42 192.98L290.55 191.88V193.94H289V191.86L287.14 193L286.32 191.61L288.17 190.61L286.32 189.61L287.14 188.22L289 189.3V187.23H290.59V189.3L292.46 188.18L293.29 189.57L291.4 190.59Z" fill="#263238"/>
<path d="M299.11 190.59L300.96 191.59L300.13 192.98L298.26 191.88V193.94H296.66V191.86L294.84 193L294.03 191.61L295.88 190.61L294.03 189.61L294.84 188.22L296.71 189.34V187.27H298.31V189.34L300.18 188.22L301.01 189.61L299.11 190.59Z" fill="#263238"/>
<path d="M306.81 190.59L308.66 191.59L307.83 192.98L305.96 191.88V193.94H304.36V191.86L302.55 193L301.73 191.61L303.59 190.61L301.73 189.61L302.55 188.22L304.42 189.34V187.27H306V189.34L307.87 188.22L308.7 189.61L306.81 190.59Z" fill="#263238"/>
<path d="M314.52 190.59L316.37 191.59L315.54 192.98L313.67 191.88V193.94H312.08V191.86L310.26 193L309.44 191.61L311.29 190.61L309.44 189.61L310.26 188.22L312.13 189.34V187.27H313.72V189.34L315.59 188.22L316.42 189.61L314.52 190.59Z" fill="#263238"/>
<path d="M223.7 135.35H145.8C145.268 135.35 144.74 135.455 144.248 135.659C143.756 135.863 143.309 136.163 142.933 136.54C142.557 136.917 142.259 137.365 142.056 137.857C141.853 138.35 141.749 138.877 141.75 139.41V174.89C141.744 175.424 141.844 175.953 142.045 176.448C142.246 176.942 142.544 177.391 142.922 177.769C143.299 178.146 143.748 178.444 144.243 178.645C144.737 178.847 145.267 178.947 145.8 178.94H178.48L185.42 187.85L191.21 178.94H223.7C224.232 178.94 224.759 178.835 225.25 178.632C225.742 178.428 226.188 178.13 226.564 177.754C226.94 177.378 227.238 176.931 227.442 176.44C227.646 175.948 227.75 175.422 227.75 174.89V139.41C227.75 138.335 227.324 137.304 226.565 136.543C225.805 135.782 224.775 135.353 223.7 135.35Z" fill="white"/>
<path d="M223.7 135.35H224.08C224.46 135.383 224.833 135.467 225.19 135.6C225.774 135.809 226.301 136.152 226.73 136.6C227.343 137.259 227.72 138.103 227.8 139C227.88 142.86 227.86 148.48 227.89 155.6C227.89 159.16 227.89 163.09 227.89 167.35C227.89 169.49 227.89 171.7 227.89 174C227.917 174.588 227.891 175.177 227.81 175.76C227.687 176.367 227.435 176.94 227.07 177.44C226.696 177.953 226.212 178.375 225.653 178.676C225.094 178.978 224.474 179.15 223.84 179.18H191.16L191.36 179.08C189.54 181.87 187.58 184.9 185.58 187.98L185.39 188.27L185.17 188L178.23 179.1L178.43 179.2H147C146.43 179.2 145.9 179.2 145.29 179.2C144.403 179.094 143.57 178.716 142.906 178.118C142.241 177.52 141.778 176.732 141.58 175.86C141.481 175.299 141.444 174.729 141.47 174.16V159.51C141.47 155.25 141.47 151.073 141.47 146.98V139.41C141.471 138.883 141.569 138.361 141.76 137.87C142.131 136.894 142.841 136.085 143.76 135.59C144.219 135.355 144.718 135.206 145.23 135.15C145.723 135.125 146.217 135.125 146.71 135.15H155.22H166H185.34L213.34 135.23L220.95 135.28H222.95H223.63H222.95H220.95L213.34 135.33L185.34 135.41H166H146.79C146.31 135.41 145.79 135.41 145.36 135.41C144.906 135.462 144.465 135.598 144.06 135.81C143.233 136.234 142.59 136.945 142.25 137.81C142.079 138.246 141.991 138.711 141.99 139.18V140.68C141.99 142.68 141.99 144.68 141.99 146.75V159.28C141.99 163.533 141.99 167.867 141.99 172.28V173.94C141.959 174.472 141.989 175.005 142.08 175.53C142.256 176.296 142.665 176.989 143.251 177.513C143.836 178.038 144.57 178.369 145.35 178.46C145.86 178.51 146.45 178.46 147 178.46H178.6L178.68 178.56L185.62 187.46H185.21L191 178.56L191.07 178.45H191.21H223.87C224.445 178.431 225.008 178.28 225.516 178.01C226.024 177.739 226.463 177.356 226.8 176.89C227.139 176.441 227.371 175.921 227.48 175.37C227.557 174.81 227.584 174.245 227.56 173.68C227.56 171.38 227.56 169.17 227.56 167.03C227.56 162.77 227.56 158.84 227.56 155.28C227.56 148.18 227.56 142.56 227.61 138.69C227.522 137.854 227.172 137.066 226.61 136.44C226.2 135.981 225.69 135.622 225.12 135.39C224.651 135.309 224.173 135.296 223.7 135.35Z" fill="#263238"/>
<path d="M170.16 145.37V146.68H169.31V145.36L167.87 143H168.78L169.78 144.64L170.78 143H171.62L170.16 145.37Z" fill="#263238"/>
<path d="M171.58 144.83C171.562 144.431 171.664 144.036 171.873 143.695C172.081 143.355 172.387 143.085 172.75 142.919C173.114 142.754 173.519 142.701 173.912 142.768C174.306 142.835 174.671 143.018 174.959 143.294C175.248 143.569 175.448 143.925 175.533 144.316C175.617 144.706 175.583 145.112 175.435 145.483C175.287 145.854 175.031 146.172 174.7 146.396C174.37 146.62 173.979 146.74 173.58 146.74C173.322 146.752 173.064 146.712 172.822 146.621C172.579 146.531 172.358 146.392 172.171 146.213C171.984 146.035 171.835 145.82 171.734 145.582C171.632 145.345 171.58 145.089 171.58 144.83ZM174.76 144.83C174.758 144.601 174.688 144.378 174.56 144.188C174.431 143.999 174.249 143.852 174.037 143.765C173.825 143.679 173.592 143.658 173.368 143.704C173.143 143.749 172.938 143.861 172.776 144.023C172.615 144.186 172.506 144.393 172.462 144.617C172.418 144.842 172.441 145.075 172.529 145.286C172.618 145.498 172.766 145.678 172.957 145.805C173.147 145.932 173.371 146 173.6 146C173.754 146.004 173.908 145.977 174.051 145.919C174.195 145.862 174.325 145.776 174.433 145.666C174.542 145.556 174.627 145.426 174.683 145.282C174.74 145.138 174.766 144.984 174.76 144.83Z" fill="#263238"/>
<path d="M176.25 145.05V143H177.11V145C177.11 145.7 177.42 146 177.93 146C178.44 146 178.76 145.71 178.76 145V143H179.61V145.07C179.61 145.516 179.433 145.943 179.118 146.258C178.803 146.573 178.376 146.75 177.93 146.75C177.484 146.75 177.057 146.573 176.742 146.258C176.427 145.943 176.25 145.516 176.25 145.07V145.05Z" fill="#263238"/>
<path d="M182.82 146.68L182.11 145.68H181.32V146.68H180.46V143H182.06C183.06 143 183.67 143.51 183.67 144.34C183.681 144.59 183.614 144.837 183.477 145.047C183.341 145.257 183.143 145.419 182.91 145.51L183.74 146.7L182.82 146.68ZM182.02 143.68H181.32V145H182.02C182.54 145 182.8 144.75 182.8 144.35C182.8 143.95 182.54 143.67 182 143.67L182.02 143.68Z" fill="#263238"/>
<path d="M185.62 144.83C185.623 144.42 185.753 144.021 185.99 143.687C186.228 143.352 186.563 143.099 186.949 142.962C187.336 142.824 187.755 142.809 188.151 142.918C188.546 143.026 188.898 143.254 189.16 143.57L188.61 144.08C188.497 143.94 188.353 143.828 188.191 143.752C188.028 143.676 187.85 143.638 187.67 143.64C187.375 143.667 187.1 143.804 186.9 144.023C186.7 144.242 186.589 144.528 186.589 144.825C186.589 145.122 186.7 145.408 186.9 145.627C187.1 145.846 187.375 145.983 187.67 146.01C187.849 146.014 188.027 145.978 188.19 145.903C188.353 145.829 188.496 145.718 188.61 145.58L189.16 146.08C188.899 146.395 188.547 146.623 188.153 146.732C187.758 146.841 187.34 146.826 186.954 146.69C186.568 146.554 186.233 146.302 185.995 145.97C185.756 145.637 185.625 145.239 185.62 144.83Z" fill="#263238"/>
<path d="M189.43 144.83C189.412 144.431 189.514 144.036 189.722 143.695C189.931 143.355 190.236 143.085 190.6 142.919C190.963 142.754 191.368 142.701 191.762 142.768C192.156 142.835 192.52 143.018 192.809 143.294C193.098 143.569 193.297 143.925 193.382 144.316C193.467 144.706 193.433 145.112 193.285 145.483C193.136 145.854 192.88 146.172 192.55 146.396C192.219 146.62 191.829 146.74 191.43 146.74C191.171 146.752 190.913 146.712 190.671 146.621C190.429 146.531 190.208 146.392 190.021 146.213C189.834 146.035 189.685 145.82 189.583 145.582C189.482 145.345 189.429 145.089 189.43 144.83ZM192.61 144.83C192.606 144.601 192.534 144.379 192.405 144.191C192.275 144.003 192.092 143.857 191.88 143.773C191.668 143.688 191.435 143.668 191.211 143.715C190.988 143.762 190.783 143.874 190.623 144.037C190.462 144.2 190.354 144.406 190.311 144.631C190.268 144.855 190.292 145.088 190.38 145.298C190.468 145.509 190.617 145.689 190.807 145.816C190.998 145.942 191.221 146.01 191.45 146.01C191.605 146.014 191.759 145.987 191.903 145.928C192.047 145.87 192.178 145.783 192.287 145.673C192.396 145.562 192.48 145.43 192.536 145.285C192.592 145.14 192.617 144.985 192.61 144.83Z" fill="#263238"/>
<path d="M194.13 143H195.82C196.079 142.973 196.341 143.001 196.589 143.081C196.836 143.162 197.064 143.294 197.258 143.468C197.451 143.643 197.606 143.856 197.712 144.094C197.818 144.332 197.872 144.589 197.872 144.85C197.872 145.111 197.818 145.368 197.712 145.606C197.606 145.844 197.451 146.057 197.258 146.232C197.064 146.406 196.836 146.538 196.589 146.619C196.341 146.699 196.079 146.727 195.82 146.7H194.13V143ZM195.77 146C196.075 146 196.367 145.879 196.583 145.663C196.799 145.448 196.92 145.155 196.92 144.85C196.92 144.545 196.799 144.252 196.583 144.037C196.367 143.821 196.075 143.7 195.77 143.7H195V146H195.77Z" fill="#263238"/>
<path d="M201.38 146V146.69H198.51V143H201.31V143.68H199.36V144.49H201.08V145.16H199.36V146H201.38Z" fill="#263238"/>
<path d="M216.1 150.57H153.41C151.45 150.57 149.86 152.159 149.86 154.12V167.36C149.86 169.321 151.45 170.91 153.41 170.91H216.1C218.061 170.91 219.65 169.321 219.65 167.36V154.12C219.65 152.159 218.061 150.57 216.1 150.57Z" fill="#F5F5F5"/>
<path d="M164.001 162C164.002 162.419 163.916 162.833 163.749 163.217C163.581 163.6 163.334 163.944 163.025 164.227C162.716 164.509 162.352 164.724 161.955 164.857C161.558 164.99 161.137 165.039 160.721 165C158.141 165 156.771 163.14 156.771 160.06C156.771 156.72 158.54 155.01 161.15 155.01C161.925 154.976 162.695 155.149 163.381 155.51L163.09 156.09C162.497 155.765 161.826 155.609 161.15 155.64C158.94 155.64 157.491 157.09 157.491 159.95C157.487 160.345 157.514 160.739 157.571 161.13C157.805 160.501 158.239 159.965 158.805 159.604C159.372 159.243 160.041 159.077 160.711 159.13C162.721 159.06 164.001 160.21 164.001 162ZM163.281 162C163.281 160.59 162.281 159.68 160.611 159.68C160.275 159.646 159.936 159.68 159.615 159.781C159.293 159.882 158.995 160.048 158.74 160.268C158.484 160.487 158.276 160.757 158.129 161.06C157.981 161.363 157.896 161.693 157.881 162.03C157.881 163.18 158.881 164.34 160.701 164.34C161.031 164.381 161.366 164.352 161.684 164.253C162.002 164.154 162.295 163.988 162.543 163.766C162.791 163.544 162.989 163.272 163.123 162.967C163.257 162.663 163.325 162.333 163.321 162H163.281Z" fill="#FF725E"/>
<path d="M177.11 162.16H175.05V164.89H174.34V162.16H168.73V161.64L174.08 155.04H174.88L169.63 161.52H174.36V159.12H175.05V161.52H177.11V162.16Z" fill="#FF725E"/>
<path d="M188.05 162.11C188.05 163.75 186.87 164.96 184.6 164.96C183.962 164.985 183.325 164.879 182.728 164.651C182.132 164.422 181.588 164.075 181.13 163.63L181.49 163.08C181.898 163.483 182.385 163.798 182.92 164.006C183.455 164.214 184.026 164.311 184.6 164.29C186.37 164.29 187.32 163.45 187.32 162.11C187.32 160.77 186.42 159.93 184.45 159.93H183.83V159.41L186.74 155.68H181.49V155H187.67V155.5L184.67 159.29C187 159.38 188.05 160.51 188.05 162.11Z" fill="#FF725E"/>
<path d="M200 155V155.5L195.77 164.85H194.98L199.17 155.64H193.64V157.53H192.94V155H200Z" fill="#FF725E"/>
<path d="M205 160C205 156.92 206.59 155 208.85 155C211.11 155 212.71 156.91 212.71 160C212.71 163.09 211.12 165 208.85 165C206.58 165 205 163 205 160ZM212 160C212 157.26 210.72 155.67 208.86 155.67C207 155.67 205.72 157.26 205.72 160C205.72 162.74 207 164.33 208.86 164.33C210.72 164.33 212 162.7 212 160Z" fill="#FF725E"/>
<path d="M419.399 417.52C432.489 411.96 447.649 401.03 454.399 387.62C439.873 393.649 427.624 404.114 419.399 417.52Z" fill="#263238"/>
<path d="M422.189 396.71C435.279 391.16 450.439 380.23 457.189 366.82C442.661 372.84 430.409 383.303 422.189 396.71Z" fill="#263238"/>
<path d="M426 376.48C439.1 370.92 454.25 359.99 461 346.59C446.472 352.612 434.222 363.074 426 376.48Z" fill="#263238"/>
<path d="M430.72 355.3C443.07 348 456.84 335 462 320.82C448.276 328.815 437.361 340.859 430.75 355.3" fill="#263238"/>
<path d="M435.8 339.09C444.8 327.32 453.19 309.8 453.08 294.62C443.076 307.424 437.066 322.891 435.8 339.09Z" fill="#263238"/>
<path d="M433.28 346.8C431.46 330.88 425.28 310.87 414.76 298.93C416.536 316.257 422.932 332.789 433.28 346.8Z" fill="#263238"/>
<path d="M429.05 364.21C425.85 347.8 417.75 327.5 405.81 315.99C409.078 333.861 417.107 350.519 429.05 364.21Z" fill="#263238"/>
<path d="M424.19 385.44C421 369 412.88 348.73 401 337.22C404.269 355.091 412.298 371.749 424.24 385.44" fill="#263238"/>
<path d="M420.29 411.51C417.08 395.1 408.98 374.8 397.05 363.29C400.319 381.161 408.347 397.819 420.29 411.51Z" fill="#263238"/>
<path d="M436.409 336C436.36 336.076 436.327 336.161 436.309 336.25C436.239 336.44 436.159 336.68 436.059 336.98C435.839 337.67 435.529 338.62 435.149 339.82C434.359 342.29 433.299 345.88 432.049 350.34C430.799 354.8 429.419 360.13 427.999 366.08C426.579 372.03 425.179 378.62 423.859 385.56C422.539 392.5 421.509 399.16 420.639 405.22C419.769 411.28 419.149 416.76 418.699 421.36C418.249 425.96 417.929 429.7 417.769 432.29C417.689 433.55 417.629 434.54 417.579 435.29C417.579 435.61 417.579 435.86 417.579 436.07C417.566 436.156 417.566 436.244 417.579 436.33C417.61 436.247 417.627 436.159 417.629 436.07C417.629 435.87 417.629 435.61 417.709 435.3C417.779 434.58 417.879 433.59 417.999 432.3C418.219 429.73 418.589 426 419.089 421.4C419.589 416.8 420.279 411.34 421.139 405.29C421.999 399.24 423.139 392.6 424.399 385.66C425.659 378.72 427.119 372.15 428.489 366.19C429.859 360.23 431.219 354.9 432.429 350.43C433.639 345.96 434.639 342.36 435.369 339.88L436.189 337.01C436.269 336.71 436.329 336.46 436.389 336.26C436.407 336.175 436.414 336.087 436.409 336Z" fill="#263238"/>
<path d="M413 426.18C418.55 414.56 422.59 398.18 419.87 385.45C413.664 398.068 411.276 412.224 413 426.18Z" fill="#455A64"/>
<path d="M403.79 411.13C409.34 399.5 413.38 383.13 410.65 370.4C404.442 383.018 402.057 397.175 403.79 411.13Z" fill="#455A64"/>
<path d="M395.51 395.82C401.06 384.19 405.1 367.82 402.37 355.09C396.161 367.708 393.777 381.865 395.51 395.82Z" fill="#455A64"/>
<path d="M387.35 379.31C391.48 367.01 393.55 350.23 389.35 337.96C384.69 351.258 383.996 365.624 387.35 379.31Z" fill="#455A64"/>
<path d="M381.999 365.79C381.589 352.7 377.739 336.3 369.609 326.63C369.791 340.619 374.101 354.242 381.999 365.79Z" fill="#455A64"/>
<path d="M384.49 372.28C374.86 363.2 360.22 354.17 347.06 352.99C357.353 362.982 370.379 369.695 384.49 372.28Z" fill="#455A64"/>
<path d="M391 386.06C380.21 377.5 364.17 369.48 350.31 369.45C361.928 378.895 376.09 384.676 391 386.06Z" fill="#455A64"/>
<path d="M399.1 402.67C388.31 394.12 372.28 386.09 358.42 386.06C370.036 395.503 384.194 401.284 399.1 402.67Z" fill="#455A64"/>
<path d="M410.41 421.79C399.62 413.23 383.58 405.21 369.72 405.17C381.335 414.622 395.499 420.407 410.41 421.79Z" fill="#455A64"/>
<path d="M380.779 363.42C380.779 363.42 380.779 363.49 380.839 363.63L381.059 364.25L381.959 366.6C382.749 368.6 383.959 371.6 385.489 375.18C388.569 382.37 393.139 392.18 398.809 402.72C401.649 407.97 404.499 412.91 407.159 417.34C409.819 421.77 412.349 425.71 414.519 428.97C416.689 432.23 418.519 434.84 419.759 436.62L421.239 438.62L421.629 439.14C421.719 439.26 421.769 439.32 421.779 439.31C421.747 439.241 421.71 439.174 421.669 439.11L421.319 438.56C420.969 438.05 420.509 437.35 419.919 436.47C418.679 434.66 416.919 432.02 414.809 428.74C412.699 425.46 410.209 421.5 407.549 417.07C404.889 412.64 402.079 407.69 399.239 402.44C393.569 392 388.999 382.2 385.809 375C384.229 371.42 382.979 368.51 382.139 366.49L381.139 364.17L380.869 363.57C380.844 363.517 380.814 363.467 380.779 363.42Z" fill="#263238"/>
<path d="M386.579 427.59H441.739V438.22H436.069L431.299 468.54H397.199L392.289 438.22H386.579V427.59Z" fill="#FF725E"/>
<path d="M386.579 438C386.579 437.86 398.839 437.74 413.959 437.74C429.079 437.74 441.339 437.86 441.339 438C441.339 438.14 429.089 438.25 413.959 438.25C398.829 438.25 386.579 438.14 386.579 438Z" fill="#263238"/>
<path d="M70.6098 468.56H61.6598L58.3398 428.25H68.8798L70.6098 468.56Z" fill="#263238"/>
<path d="M148.21 468.56H157.16L160.48 428.25H149.94L148.21 468.56Z" fill="#263238"/>
<path d="M166.63 433.36L51.3896 436.06L47.8896 361.63C47.807 359.903 48.0759 358.178 48.6799 356.558C49.284 354.938 50.2106 353.458 51.4037 352.207C52.5967 350.956 54.0314 349.96 55.6207 349.28C57.21 348.6 58.9209 348.249 60.6496 348.25H158.84C160.592 348.25 162.326 348.61 163.933 349.309C165.54 350.007 166.987 351.029 168.183 352.31C169.378 353.591 170.298 355.104 170.884 356.756C171.47 358.407 171.71 360.162 171.59 361.91L166.63 433.36Z" fill="#FF725E"/>
<path d="M172.54 361.38H172.22H171.27L167.64 361.44H154.28C143 361.44 127.42 361.34 110.22 361.74C93.0097 362.31 77.4096 362.21 66.1396 362.04C60.4996 361.95 55.9296 361.84 52.7796 361.74L49.1497 361.62H48.2096C48.1034 361.634 47.9959 361.634 47.8896 361.62H48.2096H49.1497H52.7796L66.1396 361.75C77.4196 361.83 92.9996 361.87 110.21 361.29C127.42 360.9 143 361.08 154.28 361.16L167.64 361.27L171.27 361.32H172.22L172.54 361.38Z" fill="#263238"/>
<path d="M89.9195 349.41C87.3292 349.789 84.8089 350.547 82.4395 351.66C80.1451 352.922 78.0521 354.52 76.2295 356.4C76.5965 355.703 77.0801 355.074 77.6595 354.54C80.3176 351.806 83.8053 350.027 87.5795 349.48C88.3493 349.319 89.1414 349.295 89.9195 349.41Z" fill="#263238"/>
<path d="M137.319 214.08L151.399 239.81L171.999 228.27L181.999 231.58C181.999 231.58 156.759 259 152.649 260.43C148.539 261.86 140.759 262.09 136.319 256.52C132.319 251.45 120.479 224.85 120.479 224.85L137.319 214.08Z" fill="#FFBE9D"/>
<path d="M195.31 197.28C195.129 197.058 194.895 196.887 194.628 196.781C194.362 196.676 194.074 196.641 193.79 196.68L184 198C183.574 198.064 183.168 198.218 182.807 198.453C182.446 198.687 182.14 198.997 181.91 199.36L161.5 230.71L163.06 231.58L173.92 231.24L195.62 197.67L195.31 197.28Z" fill="#263238"/>
<path d="M188.359 201.35C188.438 201.474 188.553 201.57 188.689 201.625C188.825 201.68 188.975 201.691 189.118 201.656C189.26 201.622 189.388 201.543 189.484 201.431C189.579 201.32 189.637 201.181 189.649 201.035C189.661 200.888 189.627 200.742 189.551 200.616C189.476 200.49 189.363 200.391 189.228 200.333C189.093 200.275 188.943 200.261 188.8 200.293C188.657 200.325 188.527 200.401 188.429 200.51C188.314 200.615 188.243 200.761 188.23 200.916C188.217 201.072 188.263 201.227 188.359 201.35Z" fill="white"/>
<path d="M195.62 197.67C194.998 197.844 194.362 197.968 193.72 198.04L188.52 198.85L184.93 199.37C184.625 199.397 184.331 199.492 184.068 199.648C183.805 199.804 183.58 200.016 183.41 200.27L182.25 202.07C180.64 204.54 178.89 207.25 177.05 210.07C173.34 215.75 169.96 220.88 167.48 224.58L164.53 229C164.187 229.549 163.802 230.07 163.38 230.56C163.661 229.971 163.996 229.409 164.38 228.88L167.18 224.42C169.57 220.66 172.89 215.5 176.6 209.82C178.46 206.99 180.23 204.29 181.84 201.82C182.25 201.21 182.65 200.61 183.03 200.02C183.243 199.714 183.521 199.458 183.844 199.271C184.168 199.085 184.528 198.972 184.9 198.94L188.51 198.48L193.74 197.86C194.361 197.747 194.989 197.684 195.62 197.67Z" fill="#455A64"/>
<path d="M184.73 208.86C184.73 208.86 183.86 208.71 183.38 211.1C182.9 213.49 181.38 220.35 181.38 220.35L176.8 217.92L171.06 218.67C171.06 218.67 169.81 219.82 170.73 220.45C171.65 221.08 175.27 221.72 175.27 221.72L177.94 225.57L170.27 221.87C170.27 221.87 167.71 222.54 168.46 224.1C169.21 225.66 174.38 230.55 174.38 230.55L170.54 230.26L166 227.48C166 227.48 164.6 227.55 165.12 228.74C165.64 229.93 170.4 234.25 170.4 234.25L176.16 237.05C176.16 237.05 179.31 236.8 179.61 235.87C179.813 235.138 179.941 234.388 179.99 233.63C179.99 233.63 181.66 233.18 181.99 232.37C182.173 231.689 182.211 230.977 182.1 230.28C182.1 230.28 184.72 230.74 185.05 229.28C185.279 227.46 185.205 225.615 184.83 223.82C184.57 222.69 185.95 212.24 185.83 211.93C185.71 211.62 186.38 208.17 184.73 208.86Z" fill="#FFBE9D"/>
<path d="M179.76 235.89C179.304 236.163 178.79 236.321 178.26 236.35C175.704 236.721 173.104 236.102 170.99 234.62C170.2 234.05 169.81 233.62 169.86 233.53C169.91 233.44 171.79 234.96 174.59 235.61C177.39 236.26 179.73 235.71 179.76 235.89Z" fill="#EB996E"/>
<path d="M178.4 233.82C178.31 233.95 177.28 233.42 176.19 232.52C175.1 231.62 174.38 230.73 174.49 230.62C174.6 230.51 175.49 231.19 176.57 232.07C177.65 232.95 178.49 233.68 178.4 233.82Z" fill="#EB996E"/>
<path d="M181.429 228.85C181.339 228.98 180.319 228.46 179.299 227.51C178.279 226.56 177.679 225.6 177.799 225.51C177.919 225.42 178.719 226.18 179.699 227.09C180.679 228 181.519 228.71 181.429 228.85Z" fill="#EB996E"/>
<path d="M184.619 224.84C184.459 224.91 183.879 223.84 182.969 222.65C182.059 221.46 181.169 220.65 181.269 220.49C181.369 220.33 182.469 221.03 183.429 222.29C184.087 222.992 184.504 223.885 184.619 224.84Z" fill="#EB996E"/>
<path d="M188.509 410.3C188.586 409.988 188.586 409.662 188.509 409.35C188.347 408.486 188.007 407.665 187.509 406.94C187.347 406.689 187.156 406.457 186.939 406.25C186.798 406.116 186.623 406.023 186.433 405.981C186.242 405.939 186.044 405.949 185.859 406.01C185.751 406.048 185.652 406.11 185.57 406.191C185.489 406.272 185.427 406.371 185.389 406.48C185.319 406.688 185.319 406.912 185.389 407.12C185.526 407.468 185.693 407.802 185.889 408.12C186.259 408.75 186.57 409.37 187.05 410.12C187.189 410.321 187.382 410.481 187.605 410.581C187.829 410.682 188.076 410.719 188.32 410.69C188.767 410.61 189.188 410.425 189.549 410.15C190.212 409.664 190.816 409.104 191.35 408.48C191.607 408.184 191.847 407.873 192.07 407.55C192.313 407.234 192.493 406.874 192.6 406.49C192.659 406.264 192.638 406.024 192.539 405.812C192.441 405.6 192.271 405.43 192.059 405.33C191.862 405.272 191.652 405.265 191.451 405.31C191.249 405.356 191.063 405.452 190.91 405.59C190.452 405.989 190.049 406.447 189.71 406.95C189.206 407.657 188.806 408.431 188.52 409.25C188.388 409.539 188.32 409.853 188.32 410.17C188.793 409.118 189.366 408.114 190.029 407.17C190.368 406.72 190.758 406.311 191.189 405.95C191.419 405.79 191.699 405.68 191.869 405.77C191.968 405.828 192.044 405.919 192.084 406.026C192.124 406.133 192.126 406.251 192.089 406.36C191.986 406.673 191.827 406.964 191.619 407.22C191.409 407.52 191.179 407.81 190.939 408.1C190.422 408.681 189.846 409.208 189.219 409.67C188.927 409.896 188.584 410.047 188.219 410.11C188.07 410.128 187.919 410.104 187.783 410.041C187.647 409.977 187.531 409.876 187.449 409.75C187.059 409.18 186.679 408.47 186.309 407.88C186.139 407.57 185.929 407.27 185.829 407.02C185.729 406.77 185.829 406.57 185.979 406.49C186.409 406.32 186.84 406.81 187.13 407.22C187.78 408.15 188.248 409.196 188.509 410.3Z" fill="#263238"/>
<path d="M163.94 411.14L151.74 437.59L132.05 428.49L144.67 395.76L163.94 411.14Z" fill="#FFBE9D"/>
<path d="M154 435.82L146.87 449.42C146.87 449.42 165.12 468.29 163.41 472.51L120.51 451.94L132.29 424.67L154 435.82Z" fill="#455A64"/>
<path d="M134.54 441.2C134.068 441.14 133.591 441.25 133.193 441.511C132.796 441.771 132.504 442.164 132.37 442.62C132.279 443.09 132.373 443.576 132.632 443.978C132.891 444.381 133.295 444.668 133.76 444.78C134.26 444.856 134.771 444.743 135.194 444.464C135.617 444.186 135.922 443.76 136.05 443.27C136.092 442.769 135.939 442.272 135.621 441.882C135.304 441.492 134.848 441.24 134.35 441.18" fill="#E0E0E0"/>
<g opacity="0.6">
<path opacity="0.6" d="M120.55 451.94L122.33 448.52L162.8 469.52C162.8 469.52 164.31 471.26 163.45 472.52L120.55 451.94Z" fill="white"/>
</g>
<path d="M147.709 449.53C147.609 449.74 146.509 449.33 145.159 449.53C143.809 449.73 142.829 450.33 142.679 450.15C142.529 449.97 143.419 448.92 145.059 448.73C146.699 448.54 147.849 449.36 147.709 449.53Z" fill="#263238"/>
<path d="M151.319 453.55C151.319 453.78 150.189 453.7 149.059 454.24C147.929 454.78 147.269 455.63 147.059 455.52C146.849 455.41 147.289 454.16 148.719 453.52C150.149 452.88 151.409 453.35 151.319 453.55Z" fill="#263238"/>
<path d="M151.29 460.16C151.08 460.16 151.29 458.93 152.38 458.04C153.47 457.15 154.67 457.16 154.67 457.38C154.67 457.6 153.78 457.92 152.89 458.66C152 459.4 151.51 460.24 151.29 460.16Z" fill="#263238"/>
<path d="M149.76 444.3C149.58 444.45 148.76 443.7 147.54 443.21C146.32 442.72 145.21 442.65 145.19 442.42C145.17 442.19 146.41 441.87 147.84 442.42C149.27 442.97 149.94 444.18 149.76 444.3Z" fill="#263238"/>
<path d="M158.06 432.29L190.23 351.8C190.23 351.8 189.5 338.06 186.97 333.73C184.44 329.4 107.82 304.09 107.82 304.09C107.82 304.09 88.3099 299.39 75.2899 304.09C62.2699 308.79 52.5199 325.09 54.2899 334.09C56.0599 343.09 63.7199 349.76 63.7199 349.76L120.07 351.44L150.78 362.64L130.1 421.91L158.06 432.29Z" fill="#263238"/>
<path d="M186.67 377.29L187.4 406.4L165.71 406.94L162.59 372L186.67 377.29Z" fill="#FFBE9D"/>
<path d="M188.69 403.8L188.29 419.15C188.29 419.15 212.99 428.02 213.29 432.57L165.72 433.05L164.25 403.38L188.69 403.8Z" fill="#455A64"/>
<path d="M173.56 417.24C173.103 417.384 172.716 417.691 172.473 418.102C172.229 418.514 172.146 419.001 172.24 419.47C172.367 419.931 172.666 420.326 173.075 420.573C173.484 420.82 173.972 420.902 174.44 420.8C174.922 420.645 175.329 420.317 175.584 419.88C175.839 419.442 175.923 418.926 175.82 418.43C175.64 417.961 175.284 417.581 174.829 417.37C174.373 417.159 173.853 417.134 173.38 417.3" fill="#E0E0E0"/>
<g opacity="0.6">
<path opacity="0.6" d="M165.75 433.05L165.84 429.19L211.42 430.19C211.42 430.19 213.54 431.09 213.32 432.59L165.75 433.05Z" fill="white"/>
</g>
<path d="M189.06 418.9C189.06 419.13 187.89 419.25 186.76 420.01C185.63 420.77 185.02 421.75 184.81 421.66C184.6 421.57 184.93 420.22 186.32 419.33C187.71 418.44 189.11 418.69 189.06 418.9Z" fill="#263238"/>
<path d="M194.069 420.91C194.129 421.14 193.119 421.54 192.339 422.53C191.559 423.52 191.339 424.53 191.119 424.53C190.899 424.53 190.719 423.21 191.719 421.99C192.719 420.77 194.059 420.69 194.069 420.91Z" fill="#263238"/>
<path d="M197 426.86C196.79 426.91 196.46 425.75 197 424.47C197.54 423.19 198.67 422.68 198.77 422.87C198.87 423.06 198.2 423.75 197.77 424.8C197.34 425.85 197.19 426.83 197 426.86Z" fill="#263238"/>
<path d="M188.579 413.3C188.489 413.51 187.419 413.2 186.109 413.3C184.799 413.4 183.779 413.83 183.649 413.63C183.519 413.43 184.499 412.63 186.049 412.5C187.599 412.37 188.699 413.11 188.579 413.3Z" fill="#263238"/>
<path d="M173.999 296.45C173.999 296.45 186.999 295.45 188.439 309.51C189.879 323.57 191.299 389.39 191.299 389.39L160.999 391.92L156.299 324.69L107.869 304.09C107.869 304.09 165.329 294.65 173.999 296.45Z" fill="#263238"/>
<path d="M120.459 277.43C120.459 277.43 128.339 299.54 126.839 302C125.339 304.46 105.069 314.6 105.069 314.6L54.3291 334.09C54.3291 334.09 49.1191 325.8 49.1191 313.09C49.1191 300.38 66.7691 277.45 66.7691 277.45L120.459 277.43Z" fill="#263238"/>
<path d="M105.42 303C105.495 303.052 105.576 303.095 105.66 303.13L106.38 303.46L109.19 304.71L119.74 309.31L156.15 324.98L155.98 324.75C156.44 331.39 156.98 338.56 157.45 345.98C158.69 363.33 159.83 379.32 160.73 391.98V392.21H160.96L183.08 390.27L189.17 389.7L190.76 389.54L191.3 389.46C191.117 389.445 190.933 389.445 190.75 389.46L189.16 389.56L183.06 390.01L160.92 391.75L161.17 391.96C160.3 379.31 159.17 363.31 158.01 345.96C157.49 338.54 157.01 331.37 156.51 324.73V324.57L156.36 324.5L119.87 309L109.26 304.56L106.42 303.39L105.68 303.1C105.596 303.06 105.509 303.027 105.42 303Z" fill="#455A64"/>
<path d="M65.0693 305.17C65.5581 305.094 66.0374 304.967 66.4993 304.79L70.3193 303.55C74.4885 302.141 78.7616 301.061 83.0993 300.32C87.4391 299.612 91.8694 299.669 96.1893 300.49C99.4893 301.18 101.389 302.12 101.429 302.01C101.019 301.732 100.576 301.507 100.109 301.34C98.8702 300.819 97.5889 300.404 96.2793 300.1C91.9139 299.149 87.4077 299.033 82.9993 299.76C78.6267 300.499 74.3317 301.64 70.1693 303.17C68.5693 303.74 67.2893 304.23 66.3993 304.58C65.9405 304.74 65.4957 304.937 65.0693 305.17Z" fill="#455A64"/>
<path d="M72.2393 293.52C73.7179 293.43 75.2006 293.43 76.6793 293.52C78.0493 293.61 79.6793 293.82 81.4793 294.03C83.2793 294.24 85.2693 294.49 87.3293 294.88C90.8539 295.441 94.2324 296.695 97.2693 298.57C98.4811 299.414 99.6338 300.339 100.719 301.34C100.52 300.989 100.271 300.669 99.9793 300.39C99.2294 299.582 98.3946 298.858 97.4893 298.23C94.4535 296.224 91.0232 294.89 87.4293 294.32C85.3493 293.93 83.3493 293.7 81.5393 293.51C79.7293 293.32 78.0893 293.16 76.6993 293.12C75.6039 293.072 74.5065 293.118 73.4193 293.26C73.0155 293.29 72.6181 293.377 72.2393 293.52Z" fill="#455A64"/>
<path d="M94.6494 115.88C88.8194 114.88 83.6494 117.13 78.7594 120.42C73.7546 123.938 69.9406 128.897 67.8254 134.637C65.7101 140.377 65.3941 146.626 66.9194 152.55C67.7639 155.561 69.2094 158.369 71.1686 160.806C73.1279 163.243 75.5603 165.258 78.3194 166.73C85.9094 170.58 95.6194 169.24 102.419 164.1C109.219 158.96 113.089 150.47 113.419 141.96C113.734 136.058 112.188 130.206 108.999 125.23C107.383 122.772 105.277 120.673 102.813 119.064C100.349 117.455 97.5805 116.371 94.6794 115.88" fill="#263238"/>
<path d="M78.0497 135.73C78.9097 133.49 78.5697 131 78.9097 128.63C79.6597 123.42 83.9097 119.24 88.7097 117.21C93.2297 115.32 98.7097 115.73 104.19 117.49C107.97 118.636 111.345 120.835 113.92 123.83C115.558 125.862 116.686 128.257 117.208 130.815C117.73 133.373 117.631 136.018 116.92 138.53L90.2597 134.65C87.7597 136.71 85.1997 138.82 82.1697 139.97C81.2963 140.353 80.3388 140.505 79.3897 140.41C78.9169 140.354 78.4704 140.163 78.1033 139.859C77.7362 139.556 77.4642 139.154 77.3197 138.7C77.0797 137.69 77.6797 136.7 78.0497 135.73Z" fill="#263238"/>
<path d="M104.76 124.85L81.4799 129.79C80.401 129.862 79.3874 130.333 78.6368 131.111C77.8862 131.889 77.4523 132.919 77.4199 134L77.6999 184.39C77.7235 187.83 78.8758 191.168 80.9799 193.89L83.1999 196.75C88.2699 203.28 98.5199 202.62 102.39 195.32C102.627 194.905 102.808 194.462 102.93 194C103 193.55 103.12 193.25 103.14 192.87L103.59 187.95C103.81 183.47 103.85 178.95 103.85 178.95C103.85 178.95 113.38 177.75 115.85 165.47C117.06 159.37 117.14 149.28 116.94 141.03C116.73 133.64 112.18 124.36 104.76 124.85Z" fill="#FFBE9D"/>
<path d="M113.369 150.53C113.356 150.942 113.183 151.333 112.886 151.619C112.588 151.904 112.191 152.063 111.779 152.06C111.577 152.069 111.375 152.038 111.185 151.968C110.994 151.897 110.821 151.789 110.673 151.65C110.526 151.511 110.408 151.344 110.326 151.158C110.245 150.973 110.202 150.773 110.199 150.57C110.215 150.158 110.389 149.768 110.685 149.481C110.981 149.194 111.377 149.032 111.789 149.03C111.992 149.022 112.195 149.055 112.385 149.126C112.575 149.198 112.749 149.307 112.896 149.446C113.043 149.586 113.161 149.754 113.242 149.94C113.324 150.126 113.367 150.327 113.369 150.53Z" fill="#263238"/>
<path d="M114.53 146.22C114.32 146.42 113.16 145.49 111.45 145.43C109.74 145.37 108.45 146.17 108.29 145.95C108.13 145.73 108.41 145.49 108.97 145.12C109.728 144.633 110.62 144.395 111.52 144.44C112.404 144.47 113.255 144.782 113.95 145.33C114.46 145.76 114.63 146.14 114.53 146.22Z" fill="#263238"/>
<path d="M98.0897 150.14C98.0792 150.554 97.9068 150.947 97.6094 151.235C97.3121 151.523 96.9136 151.683 96.4997 151.68C96.2981 151.688 96.0969 151.656 95.908 151.585C95.7192 151.514 95.5465 151.405 95.4001 151.266C95.2538 151.128 95.1367 150.961 95.0559 150.776C94.9751 150.591 94.9322 150.392 94.9297 150.19C94.9401 149.778 95.1112 149.386 95.4064 149.099C95.7015 148.811 96.0975 148.65 96.5097 148.65C96.7118 148.642 96.9135 148.674 97.1029 148.745C97.2923 148.816 97.4657 148.924 97.6128 149.063C97.76 149.202 97.8779 149.368 97.9598 149.553C98.0417 149.738 98.0859 149.938 98.0897 150.14Z" fill="#263238"/>
<path d="M98.3393 145.81C98.1293 146.01 96.9693 145.07 95.2593 145.01C93.5493 144.95 92.2593 145.75 92.0993 145.54C91.9393 145.33 92.2193 145.08 92.7893 144.7C93.5471 144.22 94.4332 143.983 95.3293 144.02C96.2171 144.056 97.071 144.371 97.7693 144.92C98.2693 145.34 98.4393 145.72 98.3393 145.81Z" fill="#263238"/>
<path d="M103.45 158.77C104.362 158.535 105.298 158.404 106.24 158.38C106.68 158.38 107.09 158.28 107.18 157.99C107.231 157.542 107.148 157.09 106.94 156.69C106.57 155.62 106.18 154.5 105.78 153.32C104.17 148.53 103.03 144.6 103.22 144.54C103.41 144.48 104.88 148.31 106.48 153.1C106.86 154.28 107.23 155.4 107.58 156.48C107.837 157.016 107.894 157.626 107.74 158.2C107.669 158.35 107.566 158.483 107.438 158.588C107.311 158.694 107.161 158.769 107 158.81C106.757 158.86 106.508 158.884 106.26 158.88C105.322 158.968 104.378 158.931 103.45 158.77Z" fill="#263238"/>
<path d="M103.849 179C98.0301 178.867 92.3624 177.119 87.4795 173.95C87.4795 173.95 91.2995 182.66 103.709 181.95L103.849 179Z" fill="#EB996E"/>
<path d="M102.569 162.85C102.261 162.429 101.85 162.095 101.375 161.878C100.901 161.661 100.379 161.569 99.8591 161.61C99.4749 161.63 99.099 161.73 98.7549 161.902C98.4108 162.074 98.1059 162.315 97.8591 162.61C97.625 162.882 97.4786 163.219 97.4394 163.576C97.4001 163.933 97.4697 164.293 97.6391 164.61C97.9016 164.925 98.2518 165.155 98.6453 165.271C99.0388 165.387 99.4578 165.383 99.8491 165.26C100.667 165.008 101.426 164.593 102.079 164.04C102.279 163.915 102.452 163.752 102.589 163.56C102.652 163.465 102.685 163.354 102.685 163.24C102.685 163.126 102.652 163.015 102.589 162.92" fill="#EB996E"/>
<path d="M98.3894 159.76C98.6694 159.76 98.5994 161.6 100.129 162.98C101.659 164.36 103.639 164.23 103.649 164.49C103.649 164.6 103.189 164.83 102.359 164.82C101.273 164.792 100.232 164.381 99.4194 163.66C98.647 162.979 98.167 162.026 98.0794 161C97.9994 160.19 98.2594 159.74 98.3894 159.76Z" fill="#263238"/>
<path d="M98.2393 140.75C98.0593 141.21 96.3593 140.92 94.3493 141.08C92.3393 141.24 90.7093 141.73 90.4593 141.3C90.3493 141.1 90.6393 140.67 91.3093 140.25C92.1975 139.724 93.1988 139.419 94.2293 139.36C95.2525 139.273 96.2817 139.434 97.2293 139.83C97.9993 140.15 98.3193 140.53 98.2393 140.75Z" fill="#263238"/>
<path d="M114.319 138.75C114.009 139.13 112.849 138.68 111.439 138.6C110.029 138.52 108.819 138.76 108.559 138.35C108.439 138.15 108.649 137.77 109.179 137.42C109.897 136.996 110.729 136.808 111.559 136.88C112.387 136.925 113.18 137.225 113.829 137.74C114.309 138.16 114.459 138.57 114.319 138.75Z" fill="#263238"/>
<path d="M73.7793 132.13C76.1993 125.04 86.7793 115.38 94.1993 116.05L105.999 123.44C105.57 125.469 104.6 127.345 103.191 128.867C101.783 130.39 99.9889 131.504 97.9993 132.09C95.8693 132.69 93.3293 132.82 91.9993 134.61C90.6693 136.4 91.3793 139.15 90.1493 141.03C88.4393 143.65 83.9293 143.43 82.6293 146.27C82.0693 147.51 82.3193 149.01 81.7293 150.27C80.9493 151.91 76.7293 153.92 74.9993 153.34C73.2693 152.76 73.3293 149.81 72.7993 148.25C72.1172 146.495 72.0677 144.557 72.6593 142.77C73.5193 139.26 72.6293 135.51 73.7793 132.13Z" fill="#263238"/>
<path d="M80.1198 154.87C80.1198 153.95 79.1198 151.74 78.2698 151.56C75.8598 151.09 71.4798 151.12 71.1998 157.28C70.8198 165.7 79.3498 164.34 79.3798 164.1C79.4098 163.86 79.9998 158.05 80.1198 154.87Z" fill="#FFBE9D"/>
<path d="M76.9999 160.8C76.9999 160.8 76.8499 160.89 76.5899 160.99C76.2402 161.131 75.8496 161.131 75.4999 160.99C74.6199 160.62 73.9399 159.17 73.9599 157.66C73.9762 156.935 74.1502 156.221 74.4699 155.57C74.5623 155.311 74.7162 155.079 74.9182 154.892C75.1202 154.706 75.3644 154.571 75.6299 154.5C75.7994 154.461 75.9771 154.484 76.1311 154.565C76.285 154.646 76.4052 154.779 76.4699 154.94C76.5699 155.18 76.4699 155.35 76.5599 155.36C76.6499 155.37 76.7399 155.23 76.6899 154.88C76.6584 154.67 76.5519 154.478 76.3899 154.34C76.2789 154.245 76.1501 154.173 76.011 154.129C75.872 154.084 75.7254 154.067 75.5799 154.08C75.2315 154.135 74.9027 154.278 74.6246 154.494C74.3464 154.711 74.128 154.995 73.9899 155.32C73.6013 156.032 73.3919 156.829 73.3799 157.64C73.3799 159.34 74.1499 160.97 75.3799 161.38C75.6027 161.455 75.8394 161.479 76.0728 161.452C76.3063 161.424 76.5307 161.345 76.7299 161.22C76.9199 161 76.9999 160.81 76.9999 160.8Z" fill="#EB996E"/>
<path d="M72 130C72 127.36 68.74 125.64 66.17 125C63.5479 124.55 60.8514 125.065 58.58 126.45C57.23 127.19 55.87 128.25 55.58 129.76C55.29 131.27 56.73 133.07 58.17 132.53C57.4662 132.76 56.8224 133.144 56.285 133.653C55.7476 134.163 55.33 134.785 55.0624 135.475C54.7949 136.166 54.684 136.907 54.7378 137.646C54.7917 138.384 55.0088 139.102 55.3737 139.746C55.7385 140.39 56.2419 140.945 56.8475 141.371C57.4531 141.798 58.1458 142.084 58.8755 142.21C59.6052 142.335 60.3537 142.297 61.067 142.099C61.7803 141.9 62.4405 141.545 63 141.06C62.2695 143.502 60.7234 145.62 58.62 147.06C60.7959 147.372 63.0156 147.106 65.0557 146.287C67.0958 145.469 68.8842 144.127 70.2407 142.397C71.5973 140.667 72.4741 138.611 72.783 136.435C73.0918 134.258 72.8218 132.039 72 130Z" fill="#263238"/>
<path d="M66.1391 143.34C65.8888 142.521 65.7806 141.665 65.8191 140.81C65.7856 136.65 67.1522 132.599 69.6991 129.31C70.18 128.603 70.7827 127.987 71.4791 127.49C69.7204 129.736 68.3174 132.238 67.3191 134.91C65.7691 139.41 66.3291 143.35 66.1391 143.34Z" fill="#FF725E"/>
<path d="M103.54 120.9C104.31 124.33 109.54 128.72 111.81 131.39C116.17 136.48 117.03 138.17 116.99 149.56C119.05 145.63 120.63 141.77 120.47 137.34C120.373 132.853 118.637 128.556 115.59 125.26C114.065 123.652 112.187 122.421 110.104 121.664C108.022 120.907 105.791 120.646 103.59 120.9" fill="#263238"/>
<path d="M139.25 214.58C139.25 214.58 130.17 199.45 127.65 196.39C125.626 194.025 123.083 192.16 120.22 190.94C119.089 190.452 117.904 190.099 116.69 189.89L103.63 187C103.63 187 103.63 195.91 94.2796 196.46C84.9296 197.01 77.0896 184 77.0896 184C77.0896 184 61.9996 186.34 58.3996 188.2C54.7996 190.06 49.1196 192.41 45.9996 208L43.8096 223.28L69.8096 225.68L72.2996 264.32L85.1896 273.32C85.1896 273.32 120.94 282.61 123.19 283.22C125.44 283.83 126.19 225.7 126.19 225.7C126.19 225.7 135.45 219.79 139.25 214.58Z" fill="#263238"/>
<path d="M122.13 208.08C122.341 208.433 122.512 208.809 122.64 209.2C122.93 209.93 123.31 211 123.73 212.34C125.916 219.361 126.817 226.719 126.39 234.06C126.31 235.46 126.2 236.59 126.08 237.37C126.053 237.776 125.983 238.179 125.87 238.57C125.822 238.165 125.822 237.755 125.87 237.35C125.92 236.57 125.98 235.44 126.01 234.04C126.107 230.399 125.94 226.756 125.51 223.14C125.059 219.529 124.344 215.956 123.37 212.45C123 211.1 122.67 210.01 122.43 209.27C122.288 208.885 122.188 208.486 122.13 208.08Z" fill="#455A64"/>
<path d="M121 271.37L71.9997 260.71L69.7397 225.71L47.9697 223.71C47.9697 223.71 48.7797 247.63 49.6097 254.71C50.8197 264.94 56.8597 278.9 60.3997 281.71C63.9397 284.52 123.15 283.24 123.15 283.24L121 271.37Z" fill="#FFBE9D"/>
<path d="M148.81 277.71C148.647 278.048 148.387 278.33 148.062 278.519C147.738 278.708 147.364 278.795 146.99 278.77C146.83 278.759 146.672 278.729 146.52 278.68C145.43 278.33 145.52 276.12 145.52 276.12L140.34 275.28C140.34 275.28 133.59 279.63 131.19 282.51C128.79 285.39 122.67 283.06 122.67 283.06L120.55 272L130.1 263.37C130.1 263.37 129.52 263.88 130.18 262.27C130.84 260.66 133.83 261.27 133.83 261.27C134.3 260.47 136.26 260.19 136.26 260.19L144.64 261.19C145.491 261.289 146.31 261.577 147.035 262.034C147.76 262.491 148.373 263.105 148.83 263.83L152.38 269.44C152.38 269.44 154.25 273.44 153.95 274.44C153.816 274.842 153.536 275.178 153.165 275.382C152.795 275.586 152.36 275.642 151.95 275.54C151.95 275.54 151.54 278.2 150.84 278.29C150.125 278.253 149.423 278.083 148.77 277.79L148.81 277.71Z" fill="#FFBE9D"/>
<path d="M131 269.77C131 269.86 132.12 269.77 133.91 269.83C136.234 269.942 138.533 270.373 140.74 271.11C141.955 271.518 143.136 272.023 144.27 272.62C145.27 273.19 146.33 273.62 146.66 274.39C146.734 274.55 146.765 274.727 146.75 274.902C146.734 275.078 146.672 275.246 146.57 275.39C146.418 275.626 146.199 275.811 145.94 275.92C145.702 276.003 145.451 276.04 145.2 276.03C145.2 276.03 145.46 276.26 146 276.12C146.326 276.031 146.612 275.834 146.81 275.56C146.954 275.378 147.048 275.161 147.083 274.931C147.118 274.702 147.093 274.467 147.01 274.25C146.797 273.769 146.45 273.359 146.01 273.07C145.55 272.78 145.07 272.47 144.54 272.18C143.392 271.55 142.19 271.021 140.95 270.6C138.695 269.838 136.33 269.449 133.95 269.45C132.956 269.401 131.96 269.509 131 269.77Z" fill="#EB996E"/>
<path d="M130.399 275.11C130.399 275.27 133.819 275.11 138.009 275.37C142.199 275.63 145.559 276.13 145.589 275.97C144.89 275.695 144.157 275.517 143.409 275.44C141.632 275.139 139.839 274.938 138.039 274.84C136.237 274.74 134.431 274.74 132.629 274.84C131.877 274.827 131.127 274.918 130.399 275.11Z" fill="#EB996E"/>
<path d="M148.76 277.5C148.833 277.209 148.87 276.91 148.87 276.61C148.921 275.791 148.921 274.969 148.87 274.15C148.841 273.578 148.764 273.009 148.64 272.45C148.489 271.795 148.21 271.177 147.82 270.63C146.994 269.364 145.927 268.273 144.68 267.42C143.448 266.567 142.101 265.893 140.68 265.42C139.501 265.087 138.285 264.902 137.06 264.87C136.06 264.87 135.2 264.87 134.62 264.87C134.317 264.85 134.013 264.88 133.72 264.96C134.82 265.117 135.929 265.211 137.04 265.24C138.227 265.319 139.401 265.534 140.54 265.88C141.904 266.378 143.198 267.05 144.39 267.88C145.569 268.707 146.586 269.744 147.39 270.94C148.047 271.912 148.425 273.047 148.48 274.22C148.7 276.21 148.65 277.5 148.76 277.5Z" fill="#EB996E"/>
<path d="M136.67 262.3C136.67 262.38 137.92 262.42 139.92 262.65C141.92 262.88 144.92 263.08 146.69 265.74C148.393 267.725 149.813 269.936 150.91 272.31C151.273 273.33 151.541 274.381 151.71 275.45C151.769 275.156 151.769 274.854 151.71 274.56C151.659 273.748 151.494 272.946 151.22 272.18C150.206 269.712 148.798 267.426 147.05 265.41C146.583 264.793 146.039 264.238 145.43 263.76C144.83 263.326 144.15 263.013 143.43 262.84C142.269 262.529 141.08 262.338 139.88 262.27C138.813 262.153 137.735 262.163 136.67 262.3Z" fill="#EB996E"/>
<path d="M133 280.73C133.177 280.618 133.344 280.491 133.5 280.35L134.9 279.22C136.661 277.851 138.501 276.585 140.41 275.43H140.29L145.47 276.31L145.29 276.09C145.273 276.516 145.307 276.942 145.39 277.36C145.458 277.826 145.663 278.261 145.98 278.61C146.17 278.782 146.406 278.893 146.66 278.93C146.901 278.975 147.148 278.975 147.39 278.93C147.893 278.856 148.352 278.6 148.68 278.21C148.767 278.119 148.844 278.018 148.91 277.91L148.96 277.82L148.66 277.93L148.82 277.99C149.04 278.08 149.26 278.16 149.49 278.23C149.72 278.3 149.95 278.36 150.2 278.41C150.329 278.421 150.46 278.421 150.59 278.41C150.755 278.42 150.92 278.389 151.07 278.32C151.297 278.141 151.47 277.902 151.57 277.63C151.675 277.401 151.762 277.163 151.83 276.92C151.97 276.437 152.081 275.946 152.16 275.45L151.86 275.66C152.211 275.733 152.576 275.711 152.915 275.595C153.255 275.478 153.557 275.273 153.79 275C154.021 274.718 154.148 274.365 154.15 274C154.122 273.662 154.061 273.327 153.97 273C153.577 271.726 153.099 270.48 152.54 269.27L150.65 266.27L149.45 264.38C149.085 263.718 148.646 263.101 148.14 262.54C147.604 262.001 146.964 261.575 146.26 261.29C145.573 261.035 144.851 260.887 144.12 260.85L136.23 259.96H136.17C135.695 260.036 135.229 260.16 134.78 260.33C134.3 260.474 133.879 260.768 133.58 261.17L133.87 261.08C133.443 260.883 132.975 260.794 132.506 260.82C132.037 260.846 131.582 260.987 131.18 261.23C130.48 261.739 130.004 262.498 129.85 263.35L129.91 263.24L123.33 269.16L121.56 270.79C121.342 270.968 121.144 271.169 120.97 271.39C121.204 271.236 121.425 271.062 121.63 270.87L123.48 269.32L130.17 263.54H130.22V263.47C130.363 262.728 130.781 262.067 131.39 261.62C131.734 261.425 132.119 261.315 132.514 261.3C132.909 261.284 133.302 261.363 133.66 261.53L133.84 261.6L133.95 261.44C134.211 261.13 134.559 260.907 134.95 260.8C135.368 260.648 135.8 260.537 136.24 260.47H136.17L144.06 261.4C144.744 261.44 145.418 261.582 146.06 261.82C146.698 262.076 147.277 262.46 147.76 262.95C148.237 263.485 148.653 264.072 149 264.7L150.2 266.6C150.85 267.6 151.49 268.6 152.09 269.6C152.646 270.778 153.117 271.995 153.5 273.24C153.588 273.53 153.645 273.828 153.67 274.13C153.675 274.389 153.586 274.641 153.42 274.84C153.25 275.039 153.028 275.188 152.78 275.271C152.532 275.354 152.265 275.367 152.01 275.31H151.74V275.56C151.663 276.036 151.56 276.506 151.43 276.97C151.345 277.382 151.159 277.767 150.89 278.09C150.82 278.101 150.749 278.101 150.68 278.09H150.36C150.15 278.09 149.93 277.99 149.71 277.93L149.07 277.71L148.92 277.65L148.61 277.76V277.82C148.561 277.906 148.504 277.986 148.44 278.06C148.186 278.364 147.831 278.566 147.44 278.63C147.252 278.67 147.058 278.67 146.87 278.63C146.693 278.613 146.526 278.544 146.39 278.43C145.951 277.796 145.752 277.027 145.83 276.26V276.07H145.65L140.45 275.26H140.39H140.34C138.437 276.451 136.617 277.767 134.89 279.2C134.29 279.71 133.84 280.12 133.54 280.4C133.348 280.49 133.167 280.601 133 280.73Z" fill="#EB996E"/>
<path d="M212.32 245.54L147.85 246.07C145.75 246.07 143.76 247.07 143.44 249.14L136.44 296.14H103.18C102.691 296.175 102.233 296.394 101.899 296.753C101.565 297.112 101.379 297.585 101.379 298.075C101.379 298.565 101.565 299.038 101.899 299.397C102.233 299.756 102.691 299.975 103.18 300.01H209.26L216.51 250.41C216.6 249.807 216.56 249.192 216.391 248.606C216.222 248.02 215.929 247.477 215.531 247.015C215.133 246.552 214.64 246.181 214.086 245.927C213.532 245.672 212.93 245.54 212.32 245.54Z" fill="#E0E0E0"/>
<path d="M212.319 245.54C212.656 245.526 212.993 245.56 213.319 245.64C214.177 245.843 214.951 246.307 215.535 246.968C216.119 247.629 216.483 248.454 216.579 249.33C216.604 250.22 216.523 251.109 216.339 251.98L215.409 258.53C213.989 268.38 211.949 282.58 209.409 300.04V300.21H209.239L106.329 300.27H103.559C103.056 300.318 102.549 300.221 102.099 299.99C101.755 299.801 101.468 299.523 101.268 299.186C101.068 298.848 100.963 298.463 100.963 298.07C100.963 297.678 101.068 297.292 101.268 296.954C101.468 296.617 101.755 296.339 102.099 296.15C102.551 295.924 103.057 295.831 103.559 295.88H136.399L136.149 296.1C138.679 279.27 141.049 263.57 143.149 249.48C143.219 248.539 143.649 247.662 144.349 247.03C145.049 246.44 145.902 246.062 146.809 245.94C147.673 245.856 148.542 245.826 149.409 245.85H151.939L161.649 245.79L178.899 245.68L203.459 245.55H212.299C212.299 245.55 212.109 245.55 211.729 245.55H210.029L203.459 245.64L178.899 245.91L161.649 246.09L151.939 246.18H149.409C148.565 246.164 147.721 246.194 146.879 246.27C146.049 246.38 145.268 246.727 144.629 247.27C144.318 247.55 144.065 247.888 143.885 248.265C143.705 248.643 143.601 249.052 143.579 249.47C141.479 263.56 139.139 279.26 136.579 296.09V296.31H103.579C103.169 296.258 102.751 296.328 102.379 296.51C102.041 296.704 101.78 297.009 101.64 297.373C101.499 297.738 101.489 298.139 101.609 298.51C101.752 298.886 102.021 299.2 102.369 299.4C102.745 299.582 103.164 299.655 103.579 299.61H106.349L209.259 299.67L209.059 299.84C211.649 282.39 213.749 268.2 215.209 258.35C215.579 255.9 215.909 253.71 216.209 251.82C216.395 250.963 216.486 250.087 216.479 249.21C216.396 248.354 216.05 247.544 215.49 246.891C214.93 246.238 214.183 245.774 213.349 245.56C213.007 245.536 212.663 245.529 212.319 245.54Z" fill="#263238"/>
<path d="M177.35 276.22C179.581 276.22 181.39 274.411 181.39 272.18C181.39 269.949 179.581 268.14 177.35 268.14C175.118 268.14 173.31 269.949 173.31 272.18C173.31 274.411 175.118 276.22 177.35 276.22Z" fill="white"/>
<path d="M139 299.57C139.09 299.57 141.14 287.62 143.58 272.85C146.02 258.08 147.93 246.08 147.84 246.07C147.75 246.06 145.69 258.02 143.25 272.79C140.81 287.56 138.92 299.56 139 299.57Z" fill="#263238"/>
</svg>
